<svg width="18" height="15" viewBox="0 0 18 15" fill="none" xmlns="http://www.w3.org/2000/svg">
<path d="M9.00001 14.1667H15.3333C16.0334 14.1667 16.3834 14.1667 16.6508 14.0305C16.886 13.9106 17.0773 13.7194 17.1971 13.4842C17.3333 13.2168 17.3333 12.8668 17.3333 12.1667V2.83337C17.3333 2.13331 17.3333 1.78328 17.1971 1.51589C17.0773 1.28068 16.886 1.08946 16.6508 0.969616C16.3834 0.833374 16.0334 0.833374 15.3333 0.833374H14.3333C12.4665 0.833374 11.5331 0.833374 10.82 1.19669C10.1928 1.51626 9.6829 2.0262 9.36332 2.65341C9.00001 3.36644 9.00001 4.29987 9.00001 6.16671M9.00001 14.1667V6.16671M9.00001 14.1667H2.66667C1.96661 14.1667 1.61657 14.1667 1.34918 14.0305C1.11398 13.9106 0.922755 13.7194 0.802914 13.4842C0.666672 13.2168 0.666672 12.8668 0.666672 12.1667V2.83337C0.666672 2.13331 0.666672 1.78328 0.802914 1.51589C0.922755 1.28068 1.11398 1.08946 1.34918 0.969616C1.61657 0.833374 1.96661 0.833374 2.66667 0.833374H3.66667C5.53351 0.833374 6.46693 0.833374 7.17997 1.19669C7.80718 1.51626 8.31712 2.0262 8.63669 2.65341C9.00001 3.36644 9.00001 4.29987 9.00001 6.16671" stroke="white" stroke-linecap="round"/>
</svg>
