<svg width="17" height="16" viewBox="0 0 17 16" fill="none" xmlns="http://www.w3.org/2000/svg">
<path d="M12.399 14.6382V8.46663C12.399 8.18225 12.399 8.04006 12.3572 7.91314C12.3203 7.80085 12.2599 7.69771 12.18 7.61057C12.0897 7.51207 11.9656 7.44255 11.7176 7.30352L8.49928 5.49978M14.7493 6.74978V9.89335C14.7493 10.4916 14.7493 10.7907 14.6582 11.0548C14.5776 11.2884 14.4462 11.5011 14.2733 11.6776C14.0778 11.8772 13.8103 12.0109 13.2752 12.2785L9.69185 14.0702C9.25458 14.2888 9.03594 14.3981 8.80661 14.4411C8.60349 14.4792 8.39506 14.4792 8.19195 14.4411C7.96262 14.3981 7.74398 14.2888 7.30671 14.0702L3.72338 12.2785C3.18827 12.0109 2.92072 11.8772 2.72525 11.6776C2.55239 11.5011 2.42092 11.2884 2.34037 11.0548C2.24928 10.7907 2.24928 10.4916 2.24928 9.89335V6.74978M7.28935 1.74447L2.24736 4.31159C1.49438 4.69496 1.11789 4.88665 0.996346 5.14487C0.890541 5.36965 0.890541 5.62991 0.996346 5.85469C1.11789 6.11291 1.49438 6.30459 2.24736 6.68797L7.28935 9.25509C7.73266 9.4808 7.95432 9.59365 8.18717 9.63804C8.39339 9.67735 8.60517 9.67735 8.81138 9.63804C9.04424 9.59365 9.2659 9.4808 9.70921 9.25508L14.7512 6.68797C15.5042 6.30459 15.8807 6.11291 16.0022 5.85469C16.108 5.62991 16.108 5.36965 16.0022 5.14487C15.8807 4.88665 15.5042 4.69496 14.7512 4.31159L9.70921 1.74447C9.2659 1.51876 9.04424 1.40591 8.81138 1.36151C8.60517 1.3222 8.39339 1.3222 8.18717 1.36151C7.95432 1.40591 7.73266 1.51876 7.28935 1.74447Z" stroke="#6A6A6E" stroke-linecap="round" stroke-linejoin="round"/>
</svg>
