<svg width="393" height="2455" viewBox="0 0 393 2455" fill="none" xmlns="http://www.w3.org/2000/svg">
<g clip-path="url(#clip0_415_636)">
<path d="M54.5 1216C54.5 1105.27 144.267 1015.5 255 1015.5H393V1016.5H255C144.819 1016.5 55.5 1105.82 55.5 1216H54.5ZM393 1644H55H393ZM54.5 1644V1216C54.5 1105.27 144.267 1015.5 255 1015.5V1016.5C144.819 1016.5 55.5 1105.82 55.5 1216V1644H54.5ZM393 1016V1644V1016Z" fill="#FFC4C4"/>
<path d="M55.5 55C55.5 24.3482 30.6518 -0.5 0 -0.5V0.5C30.0995 0.5 54.5 24.9005 54.5 55H55.5ZM0 613H55H0ZM55.5 613V55C55.5 24.3482 30.6518 -0.5 0 -0.5V0.5C30.0995 0.5 54.5 24.9005 54.5 55V613H55.5ZM0 0V613V0Z" fill="#FFC4C4"/>
<path d="M54.5 200C54.5 89.2669 144.267 -0.5 255 -0.5H403V0.5H255C144.819 0.5 55.5 89.8192 55.5 200H54.5ZM403 613H55H403ZM54.5 613V200C54.5 89.2669 144.267 -0.5 255 -0.5V0.5C144.819 0.5 55.5 89.8192 55.5 200V613H54.5ZM403 0V613V0Z" fill="#C6DDC8"/>
<path d="M337.5 518C337.5 487.348 362.348 462.5 393 462.5V463.5C362.9 463.5 338.5 487.9 338.5 518H337.5ZM393 1076H338H393ZM337.5 1076V518C337.5 487.348 362.348 462.5 393 462.5V463.5C362.9 463.5 338.5 487.9 338.5 518V1076H337.5ZM393 463V1076V463Z" fill="#FFD9A4"/>
<path d="M337.5 1659C337.5 1628.35 362.348 1603.5 393 1603.5V1604.5C362.9 1604.5 338.5 1628.9 338.5 1659H337.5ZM393 2217H338H393ZM337.5 2217V1659C337.5 1628.35 362.348 1603.5 393 1603.5V1604.5C362.9 1604.5 338.5 1628.9 338.5 1659V2217H337.5ZM393 1604V2217V1604Z" fill="#FFD9A4"/>
<path d="M55.5 1156C55.5 1125.35 30.6518 1100.5 0 1100.5V1101.5C30.0995 1101.5 54.5 1125.9 54.5 1156H55.5ZM0 1714H55H0ZM55.5 1714V1156C55.5 1125.35 30.6518 1100.5 0 1100.5V1101.5C30.0995 1101.5 54.5 1125.9 54.5 1156V1714H55.5ZM0 1101V1714V1101Z" fill="#C6DDC8"/>
<path d="M338.5 688C338.5 577.267 248.733 487.5 138 487.5H-10V488.5H138C248.181 488.5 337.5 577.819 337.5 688H338.5ZM-10 1101H338H-10ZM338.5 1101V688C338.5 577.267 248.733 487.5 138 487.5V488.5C248.181 488.5 337.5 577.819 337.5 688V1101H338.5ZM-10 488V1101V488Z" fill="#FFC4C4"/>
<path d="M338.5 1819C338.5 1708.27 248.733 1618.5 138 1618.5H0V1619.5H138C248.181 1619.5 337.5 1708.82 337.5 1819H338.5ZM0 2455H338H0ZM338.5 2455V1819C338.5 1708.27 248.733 1618.5 138 1618.5V1619.5C248.181 1619.5 337.5 1708.82 337.5 1819V2455H338.5ZM0 1619V2455V1619Z" fill="#FFC4C4"/>
</g>
<path d="M331.855 673.047C335.688 672.707 339.542 672.686 343.378 672.983L344.145 673.047L350.5 673.611V685.027C350.5 690.219 347.902 695.054 343.602 697.922L343.18 698.193L338 701.411L332.82 698.193C328.268 695.365 325.5 690.386 325.5 685.027V673.611L331.855 673.047Z" fill="#A91936" stroke="white"/>
<path d="M334.119 691V689.727L338.057 685.648C338.477 685.205 338.824 684.816 339.097 684.483C339.373 684.146 339.58 683.826 339.716 683.523C339.852 683.22 339.92 682.898 339.92 682.557C339.92 682.17 339.83 681.837 339.648 681.557C339.466 681.273 339.218 681.055 338.903 680.903C338.589 680.748 338.235 680.67 337.841 680.67C337.424 680.67 337.061 680.756 336.75 680.926C336.439 681.097 336.201 681.337 336.034 681.648C335.867 681.958 335.784 682.322 335.784 682.739H334.108C334.108 682.03 334.271 681.411 334.597 680.881C334.922 680.35 335.369 679.939 335.938 679.648C336.506 679.352 337.152 679.205 337.875 679.205C338.606 679.205 339.25 679.35 339.807 679.642C340.367 679.93 340.805 680.324 341.119 680.824C341.434 681.32 341.591 681.881 341.591 682.506C341.591 682.938 341.509 683.36 341.347 683.773C341.188 684.186 340.909 684.646 340.511 685.153C340.114 685.657 339.561 686.269 338.852 686.989L336.54 689.409V689.494H341.778V691H334.119Z" fill="white"/>
<path d="M48.8555 1225.05C52.6883 1224.71 56.5424 1224.69 60.3779 1224.98L61.1445 1225.05L67.5 1225.61V1237.03C67.5 1242.22 64.9023 1247.05 60.6016 1249.92L60.1797 1250.19L55 1253.41L49.8203 1250.19C45.2684 1247.37 42.5 1242.39 42.5 1237.03V1225.61L48.8555 1225.05Z" fill="#185B31" stroke="white"/>
<path d="M55.1364 1243.16C54.3864 1243.16 53.7178 1243.03 53.1307 1242.77C52.5473 1242.52 52.0833 1242.16 51.7386 1241.7C51.3977 1241.24 51.2121 1240.7 51.1818 1240.09H52.6136C52.6439 1240.47 52.7727 1240.79 53 1241.06C53.2273 1241.33 53.5246 1241.54 53.892 1241.69C54.2595 1241.84 54.6667 1241.91 55.1136 1241.91C55.6136 1241.91 56.0568 1241.82 56.4432 1241.65C56.8295 1241.47 57.1326 1241.23 57.3523 1240.92C57.572 1240.61 57.6818 1240.25 57.6818 1239.84C57.6818 1239.41 57.5758 1239.04 57.3636 1238.71C57.1515 1238.38 56.8409 1238.12 56.4318 1237.94C56.0227 1237.75 55.5227 1237.66 54.9318 1237.66H54V1236.41H54.9318C55.3939 1236.41 55.7992 1236.33 56.1477 1236.16C56.5 1235.99 56.7746 1235.76 56.9716 1235.45C57.1723 1235.15 57.2727 1234.8 57.2727 1234.39C57.2727 1233.99 57.1856 1233.65 57.0114 1233.36C56.8371 1233.07 56.5909 1232.84 56.2727 1232.68C55.9583 1232.51 55.5871 1232.43 55.1591 1232.43C54.7576 1232.43 54.3788 1232.51 54.0227 1232.65C53.6705 1232.8 53.3826 1233.01 53.1591 1233.28C52.9356 1233.56 52.8144 1233.89 52.7955 1234.27H51.4318C51.4545 1233.66 51.6383 1233.13 51.983 1232.67C52.3277 1232.21 52.7784 1231.85 53.3352 1231.59C53.8958 1231.33 54.5114 1231.2 55.1818 1231.2C55.9015 1231.2 56.5189 1231.35 57.0341 1231.64C57.5492 1231.93 57.9451 1232.31 58.2216 1232.78C58.4981 1233.26 58.6364 1233.77 58.6364 1234.32C58.6364 1234.97 58.464 1235.53 58.1193 1235.99C57.7784 1236.46 57.3144 1236.78 56.7273 1236.95V1237.05C57.4621 1237.17 58.036 1237.48 58.4489 1237.98C58.8617 1238.48 59.0682 1239.1 59.0682 1239.84C59.0682 1240.47 58.8958 1241.04 58.5511 1241.55C58.2102 1242.05 57.7443 1242.44 57.1534 1242.73C56.5625 1243.02 55.8902 1243.16 55.1364 1243.16Z" fill="white"/>
<path d="M48.8555 170.047C52.6883 169.707 56.5424 169.686 60.3779 169.983L61.1445 170.047L67.5 170.611V182.027C67.5 187.219 64.9023 192.054 60.6016 194.922L60.1797 195.193L55 198.411L49.8203 195.193C45.2684 192.365 42.5 187.386 42.5 182.027V170.611L48.8555 170.047Z" fill="#185B31" stroke="white"/>
<path d="M56.5341 177.364V189H54.7727V179.125H54.7045L51.9205 180.943V179.261L54.8239 177.364H56.5341Z" fill="white"/>
<path d="M331.855 1806.05C335.688 1805.71 339.542 1805.69 343.378 1805.98L344.145 1806.05L350.5 1806.61V1818.03C350.5 1823.22 347.902 1828.05 343.602 1830.92L343.18 1831.19L338 1834.41L332.82 1831.19C328.268 1828.37 325.5 1823.39 325.5 1818.03V1806.61L331.855 1806.05Z" fill="#A91936" stroke="white"/>
<path d="M333.932 1821.61V1820.45L339.045 1812.36H339.886V1814.16H339.318L335.455 1820.27V1820.36H342.341V1821.61H333.932ZM339.409 1824V1821.26V1820.72V1812.36H340.75V1824H339.409Z" fill="white"/>
<defs>
<clipPath id="clip0_415_636">
<rect width="393" height="2455" fill="white"/>
</clipPath>
</defs>
</svg>
