<svg width="18" height="15" viewBox="0 0 18 15" fill="none" xmlns="http://www.w3.org/2000/svg">
<path d="M16.8336 10.3792V3.02075C16.8336 2.63767 16.8283 2.47337 16.8053 2.36548L16.776 2.27075C16.7439 2.19341 16.677 2.09668 16.608 2.02466L16.5397 1.96313C16.4623 1.90378 16.3899 1.87003 16.1783 1.80884L15.9156 1.73657C15.1545 1.53282 14.1535 1.33325 13.1666 1.33325C12.1856 1.33325 11.1908 1.53014 10.4313 1.73267C10.0538 1.83333 9.739 1.93399 9.52012 2.00903C9.41078 2.04652 9.32533 2.07754 9.26817 2.09888C9.23991 2.10943 9.21865 2.11789 9.20469 2.12329C9.19775 2.12598 9.19221 2.12791 9.18907 2.12915C9.18757 2.12974 9.18674 2.13087 9.18614 2.1311H9.18419L9.18321 2.13208C9.18184 2.13262 9.17963 2.13313 9.17735 2.13403C9.17255 2.13592 9.16543 2.13852 9.15684 2.14185C9.13932 2.14863 9.11399 2.15907 9.08165 2.17114C9.01678 2.19536 8.92271 2.22918 8.8043 2.26978C8.56746 2.35098 8.23049 2.45899 7.82676 2.56665C7.12432 2.75397 6.20327 2.94552 5.24571 2.99048L4.8336 3.00024C4.47973 3.00024 4.12785 2.97721 3.7877 2.9397L3.45176 2.89771C2.86016 2.81456 2.43944 2.75541 2.12754 2.73071C1.88017 2.71114 1.75103 2.7188 1.68711 2.72974L1.64317 2.74048C1.52489 2.78683 1.46153 2.82727 1.41758 2.86548C1.39569 2.88453 1.3725 2.90801 1.34727 2.94067L1.26329 3.07153C1.24023 3.11266 1.20425 3.21533 1.18516 3.48755C1.16656 3.75312 1.16661 4.10983 1.16661 4.62036V11.9788C1.16661 12.4882 1.17465 12.6112 1.22325 12.7288L1.26622 12.8108C1.31797 12.8961 1.39412 12.9864 1.46055 13.0374L1.54161 13.0901C1.63167 13.138 1.76504 13.1774 2.08458 13.2629L2.6959 13.4124C3.34482 13.5545 4.09329 13.6663 4.8336 13.6663L5.20176 13.6575C6.05972 13.6169 6.90439 13.4441 7.56895 13.2668C7.94647 13.1662 8.2612 13.0655 8.48008 12.9905C8.58903 12.9531 8.67397 12.9219 8.73106 12.9006C8.75963 12.89 8.78154 12.8816 8.79551 12.8762C8.80249 12.8735 8.808 12.8716 8.81114 12.8704L8.81407 12.8694L9.19004 12.7317C9.90297 12.4868 11.5275 12.0002 13.1666 12.0002C13.6384 12.0002 14.1065 12.0397 14.5484 12.1018L15.315 12.2073C15.5334 12.2355 15.7166 12.2565 15.8727 12.2688C16.2021 12.2949 16.3213 12.273 16.357 12.259L16.4977 12.1936C16.5336 12.1731 16.5607 12.1531 16.5826 12.134C16.6264 12.0958 16.6748 12.0392 16.7369 11.929L16.7555 11.885C16.7761 11.8261 16.7997 11.7172 16.8141 11.512C16.8327 11.2463 16.8336 10.8898 16.8336 10.3792ZM10.6627 7.50024C10.6627 6.60871 9.93997 5.88599 9.04844 5.88599C8.15706 5.88616 7.43419 6.60882 7.43419 7.50024C7.43436 8.39152 8.15717 9.11433 9.04844 9.1145C9.93986 9.1145 10.6625 8.39162 10.6627 7.50024ZM3.91465 7.83813C4.37687 7.8851 4.7379 8.27564 4.7379 8.75024C4.73772 9.25636 4.32706 9.66626 3.8209 9.66626C3.3464 9.66626 2.95589 9.30607 2.90879 8.84399L2.90391 8.75024L2.90879 8.65649C2.95559 8.19411 3.34618 7.83325 3.8209 7.83325L3.91465 7.83813ZM14.3707 5.33813C14.8328 5.38524 15.193 5.77575 15.193 6.25024C15.1928 6.75625 14.783 7.16608 14.277 7.16626C13.8025 7.16626 13.412 6.80605 13.3648 6.34399L13.36 6.25024L13.3648 6.15649C13.4117 5.69412 13.8022 5.33325 14.277 5.33325L14.3707 5.33813ZM11.6627 7.50024C11.6625 8.94391 10.4921 10.1145 9.04844 10.1145C7.60489 10.1143 6.43436 8.9438 6.43419 7.50024C6.43419 6.05654 7.60478 4.88616 9.04844 4.88599C10.4923 4.88599 11.6627 6.05643 11.6627 7.50024ZM17.8336 10.3792C17.8336 10.8747 17.8338 11.2734 17.8121 11.5823C17.7936 11.8457 17.757 12.1017 17.6559 12.3254L17.608 12.4202C17.5087 12.5963 17.3932 12.7539 17.2379 12.8889C17.1213 12.9903 16.9954 13.0678 16.86 13.1311L16.7223 13.1897C16.4527 13.2953 16.1256 13.2921 15.7936 13.2659C15.6188 13.252 15.4173 13.2292 15.1871 13.1995L14.4088 13.092C14.0031 13.035 13.5828 13.0002 13.1666 13.0002C11.6808 13.0002 10.1803 13.4502 9.52598 13.6741L9.18516 13.7971V13.7981H9.18419L9.18321 13.7991C9.18182 13.7996 9.17968 13.8001 9.17735 13.801C9.17253 13.8029 9.16549 13.8055 9.15684 13.8088C9.13936 13.8156 9.11388 13.8251 9.08165 13.8372C9.01676 13.8614 8.92275 13.8962 8.8043 13.9368C8.56749 14.018 8.23042 14.125 7.82676 14.2327C7.12433 14.42 6.20326 14.6115 5.24571 14.6565L4.8336 14.6663C3.86354 14.6663 2.90379 14.4966 2.14024 14.3098L1.82579 14.2297C1.49677 14.1417 1.22076 14.073 0.961529 13.9075L0.851177 13.8303C0.651798 13.6773 0.462921 13.4447 0.345318 13.2112L0.29942 13.1116C0.157944 12.7698 0.166607 12.4172 0.166607 11.9788V4.62036C0.166607 4.12506 0.166471 3.72704 0.188091 3.41821C0.209202 3.11684 0.254287 2.82509 0.392193 2.58032L0.469341 2.45142C0.550849 2.3262 0.64479 2.21194 0.761334 2.1106C0.916716 1.97552 1.08956 1.88365 1.27794 1.80981L1.38145 1.77563C1.62902 1.7058 1.91508 1.71067 2.20567 1.73364C2.55525 1.7613 3.01291 1.82617 3.59141 1.90747L3.89805 1.94556C4.20685 1.97959 4.52151 2.00024 4.8336 2.00024L5.20176 1.99146C6.05977 1.95091 6.90437 1.77708 7.56895 1.59985C7.94647 1.49918 8.2612 1.39853 8.48008 1.32349C8.58905 1.28612 8.67398 1.25495 8.73106 1.23364C8.75963 1.22298 8.78154 1.21464 8.79551 1.20923C8.80243 1.20655 8.80802 1.2046 8.81114 1.20337L8.81407 1.20239H8.81504L8.82286 1.19849C8.82772 1.19657 8.83469 1.19403 8.84336 1.19067C8.86091 1.18388 8.8862 1.17444 8.91856 1.16235C8.98347 1.13812 9.07741 1.10435 9.1959 1.06372C9.43275 0.982517 9.76971 0.874507 10.1734 0.766846C10.9763 0.552767 12.0645 0.333252 13.1666 0.333252C14.2751 0.333252 15.3701 0.55545 16.1744 0.770752L16.444 0.843994C16.7024 0.917859 16.9296 1.00166 17.1481 1.16919L17.233 1.2395C17.428 1.4135 17.6036 1.65591 17.6998 1.88794L17.7467 2.01685C17.8399 2.31924 17.8336 2.63701 17.8336 3.02075V10.3792Z" fill="white"/>
</svg>
