<svg width="20" height="21" viewBox="0 0 20 21" fill="none" xmlns="http://www.w3.org/2000/svg">
<path d="M5.09682 13.0829H4.33334C3.39992 13.0829 2.93321 13.0829 2.57669 12.9012C2.26308 12.7414 2.00812 12.4865 1.84833 12.1728C1.66667 11.8163 1.66667 11.3496 1.66667 10.4162V6.48332C1.66667 5.5499 1.66667 5.08319 1.84833 4.72667C2.00812 4.41306 2.26308 4.1581 2.57669 3.99831C2.93321 3.81665 3.39992 3.81665 4.33334 3.81665H12.2375C13.1709 3.81665 13.6376 3.81665 13.9941 3.99831C14.3077 4.1581 14.5627 4.41306 14.7225 4.72667C14.9041 5.08319 14.9041 5.5499 14.9041 6.48332V7.77678M15.9056 12.4678H15.9122M7.60155 12.4678H7.60818M7.7627 17.1008H15.6668C16.6002 17.1008 17.0669 17.1008 17.4235 16.9191C17.7371 16.7593 17.992 16.5044 18.1518 16.1908C18.3335 15.8343 18.3335 15.3675 18.3335 14.4341V10.5012C18.3335 9.56782 18.3335 9.10111 18.1518 8.7446C17.992 8.43099 17.7371 8.17602 17.4235 8.01624C17.0669 7.83458 16.6002 7.83458 15.6668 7.83458H7.7627C6.82928 7.83458 6.36257 7.83458 6.00605 8.01624C5.69245 8.17602 5.43748 8.43099 5.27769 8.7446C5.09603 9.10111 5.09603 9.56783 5.09603 10.5012V14.4341C5.09603 15.3675 5.09603 15.8343 5.27769 16.1908C5.43748 16.5044 5.69245 16.7593 6.00605 16.9191C6.36257 17.1008 6.82928 17.1008 7.7627 17.1008ZM16.2366 12.4678C16.2366 12.6506 16.0884 12.7988 15.9056 12.7988C15.7228 12.7988 15.5745 12.6506 15.5745 12.4678C15.5745 12.285 15.7228 12.1367 15.9056 12.1367C16.0884 12.1367 16.2366 12.285 16.2366 12.4678ZM7.9326 12.4678C7.9326 12.6506 7.78438 12.7988 7.60155 12.7988C7.41873 12.7988 7.27051 12.6506 7.27051 12.4678C7.27051 12.285 7.41873 12.1367 7.60155 12.1367C7.78438 12.1367 7.9326 12.285 7.9326 12.4678ZM13.4317 12.4677C13.4317 13.3951 12.6799 14.147 11.7525 14.147C10.8251 14.147 10.0732 13.3951 10.0732 12.4677C10.0732 11.5403 10.8251 10.7885 11.7525 10.7885C12.6799 10.7885 13.4317 11.5403 13.4317 12.4677Z" stroke="white" stroke-linecap="round" stroke-linejoin="round"/>
</svg>
