<svg width="20" height="21" viewBox="0 0 20 21" fill="none" xmlns="http://www.w3.org/2000/svg">
<path d="M15.2765 9.24992H15.2849M4.8208 11.7499H4.82913M9.99984 16.3333C9.99984 16.3333 12.0832 15.4999 14.1665 15.4999C14.6105 15.4999 15.0545 15.5378 15.4784 15.5973C16.6487 15.7618 17.2339 15.8441 17.5393 15.7244C17.846 15.6042 18.0105 15.4612 18.1722 15.1742C18.3332 14.8885 18.3332 14.3854 18.3332 13.3792V6.02065C18.3332 5.54633 18.3332 5.30918 18.238 5.07943C18.1617 4.89528 18.0021 4.68736 17.844 4.56604C17.6466 4.41469 17.4459 4.36096 17.0446 4.25352C16.2618 4.04399 15.2142 3.83325 14.1665 3.83325C12.0832 3.83325 9.99984 4.66659 9.99984 4.66659M9.99984 16.3333C9.99984 16.3333 7.9165 17.1666 5.83317 17.1666C4.78551 17.1666 3.73785 16.9558 2.95512 16.7463C2.55374 16.6389 2.35304 16.5852 2.15572 16.4338C1.99757 16.3125 1.83798 16.1046 1.76169 15.9204C1.6665 15.6907 1.6665 15.4535 1.6665 14.9792V7.62065C1.6665 6.61442 1.6665 6.1113 1.82749 5.8256C1.9892 5.53862 2.15371 5.39561 2.46041 5.27541C2.76573 5.15576 3.35093 5.23801 4.52132 5.4025C4.94516 5.46207 5.38917 5.49992 5.83317 5.49992C7.9165 5.49992 9.99984 4.66659 9.99984 4.66659M9.99984 16.3333Cnan nan nan nan nan nanCnan nan nan nan nan nanCnan nan nan nan nan nanCnan nan nan nan nan nanCnan nan nan nan nan nanCnan nan nan nan nan nanCnan nan nan nan nan nanCnan nan nan nan nan nanCnan nan nan nan 9.99984 16.3333ZM9.99984 4.66659Cnan nan nan nan nan nanCnan nan nan nan nan nanCnan nan nan nan nan nanCnan nan nan nan nan nanLnan nanCnan nan nan nan nan nanCnan nan nan nan nan nanCnan nan nan nan nan nanCnan nan nan nan 9.99984 4.66659ZM15.6932 9.24992C15.6932 9.48004 15.5066 9.66659 15.2765 9.66659C15.0464 9.66659 14.8599 9.48004 14.8599 9.24992C14.8599 9.0198 15.0464 8.83325 15.2765 8.83325C15.5066 8.83325 15.6932 9.0198 15.6932 9.24992ZM5.23747 11.7499C5.23747 11.98 5.05092 12.1666 4.8208 12.1666C4.59068 12.1666 4.40413 11.98 4.40413 11.7499C4.40413 11.5198 4.59068 11.3333 4.8208 11.3333C5.05092 11.3333 5.23747 11.5198 5.23747 11.7499ZM12.1629 10.4999C12.1629 11.6676 11.2163 12.6142 10.0487 12.6142C8.88099 12.6142 7.93441 11.6676 7.93441 10.4999C7.93441 9.33225 8.88099 8.38566 10.0487 8.38566C11.2163 8.38566 12.1629 9.33225 12.1629 10.4999Z" stroke="white" stroke-linecap="round" stroke-linejoin="round"/>
</svg>
