<svg width="20" height="21" viewBox="0 0 20 21" fill="none" xmlns="http://www.w3.org/2000/svg">
<path d="M10 17.1666H16.3333C17.0334 17.1666 17.3834 17.1666 17.6508 17.0303C17.886 16.9105 18.0773 16.7193 18.1971 16.4841C18.3333 16.2167 18.3333 15.8667 18.3333 15.1666V5.83325C18.3333 5.13319 18.3333 4.78315 18.1971 4.51576C18.0773 4.28056 17.886 4.08934 17.6508 3.96949C17.3834 3.83325 17.0334 3.83325 16.3333 3.83325H15.3333C13.4665 3.83325 12.5331 3.83325 11.82 4.19656C11.1928 4.51614 10.6829 5.02608 10.3633 5.65328C10 6.36632 10 7.29974 10 9.16658M10 17.1666V9.16658M10 17.1666H3.66667C2.96661 17.1666 2.61657 17.1666 2.34918 17.0303C2.11398 16.9105 1.92276 16.7193 1.80291 16.4841C1.66667 16.2167 1.66667 15.8667 1.66667 15.1666V5.83325C1.66667 5.13319 1.66667 4.78315 1.80291 4.51576C1.92276 4.28056 2.11398 4.08934 2.34918 3.96949C2.61657 3.83325 2.96661 3.83325 3.66667 3.83325H4.66667C6.53351 3.83325 7.46693 3.83325 8.17997 4.19656C8.80718 4.51614 9.31712 5.02608 9.63669 5.65328C10 6.36632 10 7.29974 10 9.16658" stroke="white" stroke-linecap="round"/>
</svg>
