<svg width="16" height="17" viewBox="0 0 16 17" fill="none" xmlns="http://www.w3.org/2000/svg">
<path d="M1.25 6.1C1.25 4.83988 1.25 4.20982 1.49524 3.72852C1.71095 3.30516 2.05516 2.96095 2.47852 2.74524C2.95982 2.5 3.58988 2.5 4.85 2.5H11.15C12.4101 2.5 13.0402 2.5 13.5215 2.74524C13.9448 2.96095 14.289 3.30516 14.5048 3.72852C14.75 4.20982 14.75 4.83988 14.75 6.1V12.4C14.75 13.6601 14.75 14.2902 14.5048 14.7715C14.289 15.1948 13.9448 15.539 13.5215 15.7548C13.0402 16 12.4101 16 11.15 16H4.85C3.58988 16 2.95982 16 2.47852 15.7548C2.05516 15.539 1.71095 15.1948 1.49524 14.7715C1.25 14.2902 1.25 13.6601 1.25 12.4V6.1Z" fill="#F4F3F0"/>
<path d="M5 1V4M11 1V4M1.25 7H14.75M4.85 16H11.15C12.4101 16 13.0402 16 13.5215 15.7548C13.9448 15.539 14.289 15.1948 14.5048 14.7715C14.75 14.2902 14.75 13.6601 14.75 12.4V6.1C14.75 4.83988 14.75 4.20982 14.5048 3.72852C14.289 3.30516 13.9448 2.96095 13.5215 2.74524C13.0402 2.5 12.4101 2.5 11.15 2.5H4.85C3.58988 2.5 2.95982 2.5 2.47852 2.74524C2.05516 2.96095 1.71095 3.30516 1.49524 3.72852C1.25 4.20982 1.25 4.83988 1.25 6.1V12.4C1.25 13.6601 1.25 14.2902 1.49524 14.7715C1.71095 15.1948 2.05516 15.539 2.47852 15.7548C2.95982 16 3.58988 16 4.85 16Z" stroke="#1F6947" stroke-linecap="round" stroke-linejoin="round"/>
</svg>
