<svg width="25" height="24" viewBox="0 0 25 24" fill="none" xmlns="http://www.w3.org/2000/svg">
<path d="M8.75 2V6M16.75 2V6M3.75 10H21.75M9.07141 16.0266L11.0413 18.2524C11.2749 18.5164 11.6537 18.5164 11.8873 18.2524L16.25 13.3228M8.55 22H16.95C18.6302 22 19.4702 22 20.112 21.673C20.6765 21.3854 21.1354 20.9265 21.423 20.362C21.75 19.7202 21.75 18.8802 21.75 17.2V8.8C21.75 7.11984 21.75 6.27976 21.423 5.63803C21.1354 5.07354 20.6765 4.6146 20.112 4.32698C19.4702 4 18.6302 4 16.95 4H8.55C6.86984 4 6.02976 4 5.38803 4.32698C4.82354 4.6146 4.3646 5.07354 4.07698 5.63803C3.75 6.27976 3.75 7.11984 3.75 8.8V17.2C3.75 18.8802 3.75 19.7202 4.07698 20.362C4.3646 20.9265 4.82354 21.3854 5.38803 21.673C6.02976 22 6.86984 22 8.55 22Z" stroke="#6A6A6E" stroke-linecap="round"/>
</svg>
