<svg width="20" height="21" viewBox="0 0 20 21" fill="none" xmlns="http://www.w3.org/2000/svg">
<path d="M12.7326 14.1875H7.30584C7.0737 14.1875 6.95764 14.1875 6.90548 14.1619C6.77663 14.0986 6.72747 13.94 6.79792 13.8148C6.82644 13.7642 6.92216 13.6986 7.1136 13.5673L7.48598 13.3119C7.57562 13.2505 7.62044 13.2197 7.66233 13.189C8.4034 12.6461 8.88756 11.8215 9.00048 10.9098C9.00687 10.8583 9.01186 10.8041 9.02186 10.6959L9.32782 7.38237C9.40887 6.50468 10.1452 5.83323 11.0266 5.83323H11.1695C12.0328 5.83323 12.7326 6.53303 12.7326 7.39628M6.52653 11.1202H10.3798M18.3332 10.5001C18.3332 15.1025 14.6022 18.8334 9.99984 18.8334C5.39746 18.8334 1.6665 15.1025 1.6665 10.5001C1.6665 5.89771 5.39746 2.16675 9.99984 2.16675C14.6022 2.16675 18.3332 5.89771 18.3332 10.5001Z" stroke="white" stroke-linecap="round" stroke-linejoin="round"/>
</svg>
