<svg width="17" height="17" viewBox="0 0 17 17" fill="none" xmlns="http://www.w3.org/2000/svg">
<path d="M16.3333 11.5429C16.3333 10.5308 15.6445 9.64847 14.6625 9.40298C13.9999 9.23734 13.3259 9.13419 12.6489 9.09352M13.9939 5.59604C14.2701 5.20008 14.432 4.71852 14.432 4.19913C14.432 3.39538 14.0441 2.68222 13.4453 2.23667M14.6667 14.892C14.6667 13.3393 13.6099 11.9858 12.1035 11.6092C9.40929 10.9357 6.5907 10.9357 3.89647 11.6092C2.3901 11.9858 1.33333 13.3393 1.33333 14.892V16H14.6667V14.892ZM11.75 4.75C11.75 6.82107 10.0711 8.5 7.99999 8.5C5.92893 8.5 4.24999 6.82107 4.24999 4.75C4.24999 2.67893 5.92893 1 7.99999 1C10.0711 1 11.75 2.67893 11.75 4.75Z" stroke="white" stroke-linecap="round" stroke-linejoin="round"/>
</svg>
