<svg width="17" height="17" viewBox="0 0 17 17" fill="none" xmlns="http://www.w3.org/2000/svg">
<path d="M14.5451 0.401419C15.0806 -0.13385 15.9481 -0.133763 16.4836 0.401419C17.0192 0.936995 17.0192 1.8053 16.4836 2.34087L10.3811 8.44243L16.4836 14.545C17.019 15.0805 17.0191 15.9489 16.4836 16.4844C15.948 17.02 15.0797 17.0199 14.5441 16.4844L8.4416 10.3819L2.34101 16.4834C1.80547 17.0187 0.938029 17.0188 0.402536 16.4834C-0.132945 15.948 -0.132753 15.0806 0.402536 14.545L6.50312 8.44341L0.401559 2.34185C-0.133771 1.80625 -0.133935 0.93789 0.401559 0.402395C0.937011 -0.132965 1.80446 -0.132758 2.34004 0.402395L8.4416 6.50396L14.5451 0.401419Z" fill="white"/>
</svg>
