<svg width="393" height="2455" viewBox="0 0 393 2455" fill="none" xmlns="http://www.w3.org/2000/svg">
<g clip-path="url(#clip0_359_2461)">
<path d="M54.5 1216C54.5 1105.27 144.267 1015.5 255 1015.5H393V1016.5H255C144.819 1016.5 55.5 1105.82 55.5 1216H54.5ZM393 1644H55H393ZM54.5 1644V1216C54.5 1105.27 144.267 1015.5 255 1015.5V1016.5C144.819 1016.5 55.5 1105.82 55.5 1216V1644H54.5ZM393 1016V1644V1016Z" fill="#FFC4C4"/>
<path d="M55.5 55C55.5 24.3482 30.6518 -0.5 0 -0.5V0.5C30.0995 0.5 54.5 24.9005 54.5 55H55.5ZM0 613H55H0ZM55.5 613V55C55.5 24.3482 30.6518 -0.5 0 -0.5V0.5C30.0995 0.5 54.5 24.9005 54.5 55V613H55.5ZM0 0V613V0Z" fill="#FFC4C4"/>
<path d="M54.5 200C54.5 89.2669 144.267 -0.5 255 -0.5H403V0.5H255C144.819 0.5 55.5 89.8192 55.5 200H54.5ZM403 613H55H403ZM54.5 613V200C54.5 89.2669 144.267 -0.5 255 -0.5V0.5C144.819 0.5 55.5 89.8192 55.5 200V613H54.5ZM403 0V613V0Z" fill="#C6DDC8"/>
<path d="M337.5 518C337.5 487.348 362.348 462.5 393 462.5V463.5C362.9 463.5 338.5 487.9 338.5 518H337.5ZM393 1076H338H393ZM337.5 1076V518C337.5 487.348 362.348 462.5 393 462.5V463.5C362.9 463.5 338.5 487.9 338.5 518V1076H337.5ZM393 463V1076V463Z" fill="#FFD9A4"/>
<path d="M337.5 1659C337.5 1628.35 362.348 1603.5 393 1603.5V1604.5C362.9 1604.5 338.5 1628.9 338.5 1659H337.5ZM393 2217H338H393ZM337.5 2217V1659C337.5 1628.35 362.348 1603.5 393 1603.5V1604.5C362.9 1604.5 338.5 1628.9 338.5 1659V2217H337.5ZM393 1604V2217V1604Z" fill="#FFD9A4"/>
<path d="M55.5 1156C55.5 1125.35 30.6518 1100.5 0 1100.5V1101.5C30.0995 1101.5 54.5 1125.9 54.5 1156H55.5ZM0 1714H55H0ZM55.5 1714V1156C55.5 1125.35 30.6518 1100.5 0 1100.5V1101.5C30.0995 1101.5 54.5 1125.9 54.5 1156V1714H55.5ZM0 1101V1714V1101Z" fill="#C6DDC8"/>
<path d="M338.5 688C338.5 577.267 248.733 487.5 138 487.5H-10V488.5H138C248.181 488.5 337.5 577.819 337.5 688H338.5ZM-10 1101H338H-10ZM338.5 1101V688C338.5 577.267 248.733 487.5 138 487.5V488.5C248.181 488.5 337.5 577.819 337.5 688V1101H338.5ZM-10 488V1101V488Z" fill="#FFC4C4"/>
<path d="M338.5 1819C338.5 1708.27 248.733 1618.5 138 1618.5H0V1619.5H138C248.181 1619.5 337.5 1708.82 337.5 1819H338.5ZM0 2455H338H0ZM338.5 2455V1819C338.5 1708.27 248.733 1618.5 138 1618.5V1619.5C248.181 1619.5 337.5 1708.82 337.5 1819V2455H338.5ZM0 1619V2455V1619Z" fill="#FFC4C4"/>
</g>
<defs>
<clipPath id="clip0_359_2461">
<rect width="393" height="2455" fill="white"/>
</clipPath>
</defs>
</svg>
