<svg width="21" height="20" viewBox="0 0 21 20" fill="none" xmlns="http://www.w3.org/2000/svg">
<g clip-path="url(#clip0_175_266)">
<path d="M20.5 10C20.5 4.4772 16.0228 0 10.5 0C4.9772 0 0.5 4.4772 0.5 10C0.5 14.6896 3.7288 18.6248 8.0844 19.7056V13.056H6.0224V10H8.0844V8.6832C8.0844 5.2796 9.6248 3.702 12.9664 3.702C13.6 3.702 14.6932 3.8264 15.1404 3.9504V6.7204C14.9044 6.6956 14.4944 6.6832 13.9852 6.6832C12.3456 6.6832 11.712 7.3044 11.712 8.9192V10H14.9784L14.4172 13.056H11.712V19.9268C16.6636 19.3288 20.5004 15.1128 20.5004 10H20.5Z" fill="black"/>
<path d="M14.4168 13.0561L14.978 10.0001H11.7116V8.91935C11.7116 7.30455 12.3452 6.68335 13.9848 6.68335C14.494 6.68335 14.904 6.69575 15.14 6.72055V3.95055C14.6928 3.82615 13.5996 3.70215 12.966 3.70215C9.62437 3.70215 8.08397 5.27975 8.08397 8.68335V10.0001H6.02197V13.0561H8.08397V19.7057C8.85757 19.8977 9.66677 20.0001 10.4996 20.0001C10.9096 20.0001 11.314 19.9749 11.7112 19.9269V13.0561H14.4164H14.4168Z" fill="white"/>
</g>
<defs>
<clipPath id="clip0_175_266">
<rect width="20" height="20" fill="white" transform="translate(0.5)"/>
</clipPath>
</defs>
</svg>
