<svg width="22" height="20" viewBox="0 0 22 20" fill="none" xmlns="http://www.w3.org/2000/svg">
<path d="M8.25 14.0002C8.25 13.0683 8.25 12.6024 8.40224 12.2348C8.60523 11.7448 8.99458 11.3554 9.48463 11.1524C9.85218 11.0002 10.3181 11.0002 11.25 11.0002C12.1819 11.0002 12.6478 11.0002 13.0154 11.1524C13.5054 11.3554 13.8948 11.7448 14.0978 12.2348C14.25 12.6024 14.25 13.0683 14.25 14.0002V19.0002H8.25V14.0002Z" fill="#185B31" fill-opacity="0.5"/>
<path d="M21.25 9.25654L14.5549 2.90032C13.3923 1.79666 12.8111 1.24483 12.1474 1.03677C11.5631 0.853628 10.9369 0.853628 10.3526 1.03677C9.68891 1.24483 9.10765 1.79666 7.94514 2.90033L1.25 9.25654M19.1758 7.44745V15.8002C19.1758 16.9203 19.1758 17.4804 18.9578 17.9082C18.766 18.2845 18.4601 18.5905 18.0838 18.7822C17.6559 19.0002 17.0959 19.0002 15.9758 19.0002H6.52422C5.40411 19.0002 4.84406 19.0002 4.41624 18.7822C4.03991 18.5905 3.73395 18.2845 3.54221 17.9082C3.32422 17.4804 3.32422 16.9203 3.32422 15.8002V7.44745M14.25 19.0002V14.0002C14.25 13.0683 14.25 12.6024 14.0978 12.2348C13.8948 11.7448 13.5054 11.3554 13.0154 11.1524C12.6478 11.0002 12.1819 11.0002 11.25 11.0002C10.3181 11.0002 9.85218 11.0002 9.48463 11.1524C8.99458 11.3554 8.60523 11.7448 8.40224 12.2348C8.25 12.6024 8.25 13.0683 8.25 14.0002V19.0002H14.25Z" stroke="#185B31" stroke-linecap="round" stroke-linejoin="round"/>
</svg>
