<svg width="750" height="2456" viewBox="0 0 750 2456" fill="none" xmlns="http://www.w3.org/2000/svg">
<g clip-path="url(#clip0_444_636)">
<path d="M232.5 1217C232.5 1106.27 322.267 1016.5 433 1016.5H750V1017.5H433C322.819 1017.5 233.5 1106.82 233.5 1217H232.5ZM750 1645H233H750ZM232.5 1645V1217C232.5 1106.27 322.267 1016.5 433 1016.5V1017.5C322.819 1017.5 233.5 1106.82 233.5 1217V1645H232.5ZM750 1017V1645V1017Z" fill="#FFC4C4"/>
<path d="M233.5 57C233.5 25.7959 208.204 0.5 177 0.5H0V1.5H177C207.652 1.5 232.5 26.3482 232.5 57H233.5ZM0 614H233H0ZM233.5 614V57C233.5 25.7959 208.204 0.5 177 0.5V1.5C207.652 1.5 232.5 26.3482 232.5 57V614H233.5ZM0 1V614V1Z" fill="#FFC4C4"/>
<path d="M232.5 201C232.5 90.2669 322.267 0.5 433 0.5H810V1.5H433C322.819 1.5 233.5 90.8192 233.5 201H232.5ZM810 614H233H810ZM232.5 614V201C232.5 90.2669 322.267 0.5 433 0.5V1.5C322.819 1.5 233.5 90.8192 233.5 201V614H232.5ZM810 1V614V1Z" fill="#C6DDC8"/>
<path d="M515.5 520C515.5 488.796 540.796 463.5 572 463.5H750V464.5H572C541.348 464.5 516.5 489.348 516.5 520H515.5ZM750 1077H516H750ZM515.5 1077V520C515.5 488.796 540.796 463.5 572 463.5V464.5C541.348 464.5 516.5 489.348 516.5 520V1077H515.5ZM750 464V1077V464Z" fill="#FFD9A4"/>
<path d="M515.5 1661C515.5 1629.8 540.796 1604.5 572 1604.5H750V1605.5H572C541.348 1605.5 516.5 1630.35 516.5 1661H515.5ZM750 2218H516H750ZM515.5 2218V1661C515.5 1629.8 540.796 1604.5 572 1604.5V1605.5C541.348 1605.5 516.5 1630.35 516.5 1661V2218H515.5ZM750 1605V2218V1605Z" fill="#FFD9A4"/>
<path d="M233.5 1158C233.5 1126.8 208.204 1101.5 177 1101.5H0V1102.5H177C207.652 1102.5 232.5 1127.35 232.5 1158H233.5ZM0 1715H233H0ZM233.5 1715V1158C233.5 1126.8 208.204 1101.5 177 1101.5V1102.5C207.652 1102.5 232.5 1127.35 232.5 1158V1715H233.5ZM0 1102V1715V1102Z" fill="#C6DDC8"/>
<path d="M516.5 689C516.5 578.267 426.733 488.5 316 488.5H0V489.5H316C426.181 489.5 515.5 578.819 515.5 689H516.5ZM0 1102H516H0ZM516.5 1102V689C516.5 578.267 426.733 488.5 316 488.5V489.5C426.181 489.5 515.5 578.819 515.5 689V1102H516.5ZM0 489V1102V489Z" fill="#FFC4C4"/>
<path d="M516.5 1820C516.5 1709.27 426.733 1619.5 316 1619.5H0V1620.5H316C426.181 1620.5 515.5 1709.82 515.5 1820H516.5ZM0 2456H516H0ZM516.5 2456V1820C516.5 1709.27 426.733 1619.5 316 1619.5V1620.5C426.181 1620.5 515.5 1709.82 515.5 1820V2456H516.5ZM0 1620V2456V1620Z" fill="#FFC4C4"/>
<path d="M226.855 170.047C230.688 169.707 234.542 169.686 238.378 169.983L239.145 170.047L245.5 170.611V182.027C245.5 187.219 242.902 192.054 238.602 194.922L238.18 195.193L233 198.411L227.82 195.193C223.268 192.365 220.5 187.386 220.5 182.027V170.611L226.855 170.047Z" fill="#185B31" stroke="white"/>
<path d="M234.534 177.364V189H232.773V179.125H232.705L229.92 180.943V179.261L232.824 177.364H234.534Z" fill="white"/>
<path d="M509.855 673.047C513.688 672.707 517.542 672.686 521.378 672.983L522.145 673.047L528.5 673.611V685.027C528.5 690.219 525.902 695.054 521.602 697.922L521.18 698.193L516 701.411L510.82 698.193C506.268 695.365 503.5 690.386 503.5 685.027V673.611L509.855 673.047Z" fill="#A91936" stroke="white"/>
<path d="M512.119 691V689.727L516.057 685.648C516.477 685.205 516.824 684.816 517.097 684.483C517.373 684.146 517.58 683.826 517.716 683.523C517.852 683.22 517.92 682.898 517.92 682.557C517.92 682.17 517.83 681.837 517.648 681.557C517.466 681.273 517.218 681.055 516.903 680.903C516.589 680.748 516.235 680.67 515.841 680.67C515.424 680.67 515.061 680.756 514.75 680.926C514.439 681.097 514.201 681.337 514.034 681.648C513.867 681.958 513.784 682.322 513.784 682.739H512.108C512.108 682.03 512.271 681.411 512.597 680.881C512.922 680.35 513.369 679.939 513.938 679.648C514.506 679.352 515.152 679.205 515.875 679.205C516.606 679.205 517.25 679.35 517.807 679.642C518.367 679.93 518.805 680.324 519.119 680.824C519.434 681.32 519.591 681.881 519.591 682.506C519.591 682.938 519.509 683.36 519.347 683.773C519.188 684.186 518.909 684.646 518.511 685.153C518.114 685.657 517.561 686.269 516.852 686.989L514.54 689.409V689.494H519.778V691H512.119Z" fill="white"/>
<path d="M226.855 1225.05C230.688 1224.71 234.542 1224.69 238.378 1224.98L239.145 1225.05L245.5 1225.61V1237.03C245.5 1242.22 242.902 1247.05 238.602 1249.92L238.18 1250.19L233 1253.41L227.82 1250.19C223.268 1247.37 220.5 1242.39 220.5 1237.03V1225.61L226.855 1225.05Z" fill="#185B31" stroke="white"/>
<path d="M233.136 1243.16C232.386 1243.16 231.718 1243.03 231.131 1242.77C230.547 1242.52 230.083 1242.16 229.739 1241.7C229.398 1241.24 229.212 1240.7 229.182 1240.09H230.614C230.644 1240.47 230.773 1240.79 231 1241.06C231.227 1241.33 231.525 1241.54 231.892 1241.69C232.259 1241.84 232.667 1241.91 233.114 1241.91C233.614 1241.91 234.057 1241.82 234.443 1241.65C234.83 1241.47 235.133 1241.23 235.352 1240.92C235.572 1240.61 235.682 1240.25 235.682 1239.84C235.682 1239.41 235.576 1239.04 235.364 1238.71C235.152 1238.38 234.841 1238.12 234.432 1237.94C234.023 1237.75 233.523 1237.66 232.932 1237.66H232V1236.41H232.932C233.394 1236.41 233.799 1236.33 234.148 1236.16C234.5 1235.99 234.775 1235.76 234.972 1235.45C235.172 1235.15 235.273 1234.8 235.273 1234.39C235.273 1233.99 235.186 1233.65 235.011 1233.36C234.837 1233.07 234.591 1232.84 234.273 1232.68C233.958 1232.51 233.587 1232.43 233.159 1232.43C232.758 1232.43 232.379 1232.51 232.023 1232.65C231.67 1232.8 231.383 1233.01 231.159 1233.28C230.936 1233.56 230.814 1233.89 230.795 1234.27H229.432C229.455 1233.66 229.638 1233.13 229.983 1232.67C230.328 1232.21 230.778 1231.85 231.335 1231.59C231.896 1231.33 232.511 1231.2 233.182 1231.2C233.902 1231.2 234.519 1231.35 235.034 1231.64C235.549 1231.93 235.945 1232.31 236.222 1232.78C236.498 1233.26 236.636 1233.77 236.636 1234.32C236.636 1234.97 236.464 1235.53 236.119 1235.99C235.778 1236.46 235.314 1236.78 234.727 1236.95V1237.05C235.462 1237.17 236.036 1237.48 236.449 1237.98C236.862 1238.48 237.068 1239.1 237.068 1239.84C237.068 1240.47 236.896 1241.04 236.551 1241.55C236.21 1242.05 235.744 1242.44 235.153 1242.73C234.563 1243.02 233.89 1243.16 233.136 1243.16Z" fill="white"/>
<path d="M509.855 1806.05C513.688 1805.71 517.542 1805.69 521.378 1805.98L522.145 1806.05L528.5 1806.61V1818.03C528.5 1823.22 525.902 1828.05 521.602 1830.92L521.18 1831.19L516 1834.41L510.82 1831.19C506.268 1828.37 503.5 1823.39 503.5 1818.03V1806.61L509.855 1806.05Z" fill="#A91936" stroke="white"/>
<path d="M511.932 1821.61V1820.45L517.045 1812.36H517.886V1814.16H517.318L513.455 1820.27V1820.36H520.341V1821.61H511.932ZM517.409 1824V1821.26V1820.72V1812.36H518.75V1824H517.409Z" fill="white"/>
</g>
<defs>
<clipPath id="clip0_444_636">
<rect width="750" height="2456" fill="white"/>
</clipPath>
</defs>
</svg>
