<svg width="750" height="906" viewBox="0 0 750 906" fill="none" xmlns="http://www.w3.org/2000/svg">
<g clip-path="url(#clip0_450_1665)">
<path d="M229.5 56C229.5 24.7959 204.204 -0.5 173 -0.5H0V0.5H173C203.652 0.5 228.5 25.3482 228.5 56H229.5ZM0 281H229H0ZM229.5 281V56C229.5 24.7959 204.204 -0.5 173 -0.5V0.5C203.652 0.5 228.5 25.3482 228.5 56V281H229.5ZM0 0V281V0Z" fill="#FFC4C4"/>
<path d="M229.5 592C229.5 560.796 204.204 535.5 173 535.5H0V536.5H173C203.652 536.5 228.5 561.348 228.5 592H229.5ZM0 906H229H0ZM229.5 906V592C229.5 560.796 204.204 535.5 173 535.5V536.5C203.652 536.5 228.5 561.348 228.5 592V906H229.5ZM0 536V906V536Z" fill="#FFC4C4"/>
<path d="M228.5 100C228.5 44.4954 273.495 -0.5 329 -0.5H750V0.5H329C274.048 0.5 229.5 45.0477 229.5 100H228.5ZM750 281H229H750ZM228.5 281V100C228.5 44.4954 273.495 -0.5 329 -0.5V0.5C274.048 0.5 229.5 45.0477 229.5 100V281H228.5ZM750 0V281V0Z" fill="#C6DDC8"/>
<path d="M228.5 662C228.5 606.495 273.495 561.5 329 561.5H750V562.5H329C274.048 562.5 229.5 607.048 229.5 662H228.5ZM750 906H229H750ZM228.5 906V662C228.5 606.495 273.495 561.5 329 561.5V562.5C274.048 562.5 229.5 607.048 229.5 662V906H228.5ZM750 562V906V562Z" fill="#C6DDC8"/>
<path d="M512.5 381C512.5 325.495 467.505 280.5 412 280.5H0V281.5H412C466.952 281.5 511.5 326.048 511.5 381H512.5ZM0 562H512H0ZM512.5 562V381C512.5 325.495 467.505 280.5 412 280.5V281.5C466.952 281.5 511.5 326.048 511.5 381V562H512.5ZM0 281V562V281Z" fill="#C6DDC8"/>
<path d="M511.5 317C511.5 285.796 536.796 260.5 568 260.5H750V261.5H568C537.348 261.5 512.5 286.348 512.5 317H511.5ZM750 562H512H750ZM511.5 562V317C511.5 285.796 536.796 260.5 568 260.5V261.5C537.348 261.5 512.5 286.348 512.5 317V562H511.5ZM750 261V562V261Z" fill="#FFD9A4"/>
</g>
<defs>
<clipPath id="clip0_450_1665">
<rect width="750" height="906" fill="white"/>
</clipPath>
</defs>
</svg>
