<svg width="134" height="126" viewBox="0 0 134 126" fill="none" xmlns="http://www.w3.org/2000/svg">
<path d="M63.9839 74.8216C63.9839 74.8216 84.5079 60.0473 88.8954 48.5464" stroke="#0D0E0F" stroke-miterlimit="10"/>
<path d="M110.504 65.8983L110.256 50.5413C110.256 50.5413 112.458 52.7387 114.385 48.5479C114.385 48.5479 116.47 43.3383 112.32 41.5005C112.32 41.5005 109.441 40.727 107.275 44.887L105.653 47.673C105.653 47.673 103.439 47.6246 104.251 44.6741C104.251 44.6741 108.116 36.3174 107.14 34.782C106.162 33.2466 100.528 31.2517 99.8987 31.196C99.2675 31.1402 87.9999 29.3053 87.1075 32.1941C86.215 35.0829 83.0223 41.8176 83.0223 41.8176C83.0223 41.8176 74.8624 62.9582 92.2833 63.2826V65.8998C92.2833 65.8998 90.7199 68.4554 91.9295 72.3512C93.1376 76.247 95.1662 77.593 99.8972 77.6855C99.8972 77.6855 108.351 78.2741 110.506 65.8998L110.504 65.8983Z" fill="white"/>
<path d="M66.3604 91.5731V125H125.108L125.422 115.357V115.34L125.565 110.842L125.682 107.231L125.685 107.099L125.7 106.695C126.365 106.964 127.052 107.256 127.762 107.582C127.765 107.585 127.772 107.589 127.78 107.592C128.123 107.746 128.47 107.906 128.823 108.083C129.618 108.461 130.44 108.877 131.294 109.335C131.369 109.374 131.444 109.417 131.519 109.456C131.519 109.456 132.141 108.087 133.381 88.9618C134.619 69.841 110.5 65.9012 110.5 65.9012C110.5 65.9012 107.241 78.2932 99.1179 77.6664C89.8114 76.9471 91.4951 68.2088 92.2775 65.4139C92.4272 64.8781 92.5461 64.5596 92.5461 64.5596C92.4566 64.5596 92.367 64.5596 92.2775 64.5669C89.9934 64.6212 87.3043 65.4183 85.1303 66.2256C82.7949 67.0975 81.054 67.9812 81.054 67.9812L81.7262 69.6796L82.5659 71.7963L88.7016 87.2561L66.356 91.5746L66.3604 91.5731Z" fill="#E6E7E8"/>
<path d="M93.8762 63.1578C93.8762 63.1578 87.9665 64.2205 84.0708 60.1471C75.9342 51.6407 86.3944 34.7805 86.3944 34.7805C86.3944 34.7805 91.2194 37.1262 92.194 32.2572C92.194 32.2572 94.5852 29.866 95.6465 32.2572C95.6465 32.2572 97.3493 38.095 103.005 34.0965C103.66 33.6326 104.483 33.4712 105.266 33.6488C106.572 33.9453 108.121 34.8099 107.068 37.3038C105.386 41.2877 103.616 47.4146 105.652 47.6715C105.652 47.6715 109.991 38.4546 113.355 42.8818C116.72 47.309 113.178 52.4436 110.434 51.0271L110.506 65.8983" stroke="#231F20" stroke-miterlimit="10"/>
<path d="M102.375 58.7761C102.375 58.7761 99.4716 62.1156 93.876 63.1593" stroke="#231F20" stroke-miterlimit="10"/>
<path d="M97.3285 44.2264C97.879 44.2264 98.3252 43.7802 98.3252 43.2297C98.3252 42.6793 97.879 42.233 97.3285 42.233C96.778 42.233 96.3318 42.6793 96.3318 43.2297C96.3318 43.7802 96.778 44.2264 97.3285 44.2264Z" fill="#231F20"/>
<path d="M87.3485 41.5005C87.899 41.5005 88.3452 41.0542 88.3452 40.5038C88.3452 39.9533 87.899 39.5071 87.3485 39.5071C86.798 39.5071 86.3518 39.9533 86.3518 40.5038C86.3518 41.0542 86.798 41.5005 87.3485 41.5005Z" fill="#231F20"/>
<path d="M92.2819 42.6176C92.2819 42.6176 88.7693 45.2289 87.3543 46.9654C86.9902 47.4131 87.0313 48.0649 87.4482 48.4642L89.6265 50.5427" stroke="#231F20" stroke-miterlimit="10"/>
<path d="M96.1073 54.1713C96.1073 54.1713 96.6211 58.3768 91.9282 56.6065" stroke="#231F20" stroke-miterlimit="10"/>
<path d="M98.1255 38.8685C98.1255 38.8685 101.712 37.8953 101.667 42.2329" stroke="#231F20" stroke-miterlimit="10"/>
<path d="M91.175 37.571C91.175 37.571 89.0876 35.4205 86.6157 37.1277" stroke="#231F20" stroke-miterlimit="10"/>
<path d="M92.2817 63.2811V67.2797" stroke="#231F20" stroke-miterlimit="10"/>
<path d="M112.468 47.6729C112.468 47.6729 110.52 44.4054 108.041 47.6729" stroke="#231F20" stroke-miterlimit="10"/>
<path d="M85.7687 28.0443C85.8979 27.9342 85.986 27.8711 86.0036 27.8535H86.008C86.0741 27.7243 86.0565 27.5628 85.9346 27.4572C84.5842 26.2491 80.6634 22.1419 85.0201 18.4884C90.2003 14.1522 95.335 19.6407 95.1148 23.2282C95.1148 23.2282 101.003 17.6487 104.678 22.5632C104.678 22.5632 106.124 24.4906 104.734 26.4355C104.605 26.6161 104.785 26.8509 104.988 26.7658C107.099 25.8924 112.062 24.332 114.194 27.8741C116.738 32.0957 113.255 34.1067 112.722 34.3871C113.534 34.0201 121.544 30.5808 123.191 37.3052C123.191 37.3052 123.599 42.4517 119.267 42.2168C118.324 42.1654 117.594 43.1093 117.986 43.968C118.133 44.2836 118.372 44.5992 118.754 44.8751C120.659 46.2447 122.075 52.0883 115.787 53.2186C111.14 54.0553 111.331 52.9397 111.331 52.9397L110.497 54.801L110.431 51.0271C110.431 51.0271 110.438 51.03 110.45 51.0344C110.589 51.0828 111.419 51.3544 112.311 51.0711C112.318 51.0711 112.326 51.0667 112.333 51.0638C113.001 50.8465 113.698 50.3225 114.168 49.1702C114.447 48.5023 114.645 47.6216 114.718 46.4649C114.723 46.4326 114.726 46.4018 114.726 46.3695C114.726 46.3695 114.716 46.2476 114.682 46.0421C114.682 46.0201 114.679 45.9981 114.674 45.9761C114.608 45.5973 114.476 44.9852 114.212 44.335C114.205 44.3159 114.197 44.3027 114.19 44.2836C113.977 43.7654 113.676 43.2267 113.265 42.7673L113.258 42.7599C112.828 42.2858 112.282 41.8968 111.577 41.6957L111.573 41.6913C111.573 41.6913 111.561 41.6913 111.554 41.6884C111.348 41.637 109.568 41.3214 107.298 44.8414L107.272 44.8854L105.723 47.5247L105.697 47.5731H105.678L105.656 47.6539L105.648 47.6729C105.648 47.6729 102.745 48.0693 105.057 41.7221L106.701 36.652C106.903 36.0311 106.72 35.3383 106.209 34.9302C106.199 34.9228 106.187 34.9111 106.172 34.9038C105.321 34.2461 104.106 34.3973 103.331 35.146C102.009 36.4304 99.2454 38.2373 96.1203 35.1606C96.1203 35.1606 95.0487 33.6737 94.8065 32.2381C94.8065 32.2381 94.0609 31.761 93.4884 32.128L93.4839 32.1324C91.928 35.8799 89.2697 36.8898 86.2076 35.0799C85.7966 34.8333 85.3783 34.5397 84.9526 34.1948C84.9482 34.1904 84.9453 34.1874 84.9409 34.1845C81.8788 31.6774 84.8674 28.7988 85.7628 28.0428L85.7687 28.0443Z" fill="#231F20"/>
<path d="M112.207 94.5985L106.862 111.111L113.619 111.322L112.207 94.5985Z" fill="#231F20"/>
<path d="M77.1729 113.009L80.4022 114.327" stroke="#231F20" stroke-miterlimit="10"/>
<path d="M48.0571 44.2249C48.0571 44.2249 51.9074 75.6759 72.4329 77.6884C92.9584 79.7008 110.083 48.5463 110.083 48.5463" stroke="#0D0E0F" stroke-miterlimit="10"/>
<path d="M47.4731 80.3907C47.4731 80.3907 46.7509 70.0876 58.2533 67.2266C61.1509 66.5059 64.1733 66.4678 67.1164 66.9756C71.41 67.7169 80.5476 68.5169 83.9516 62.7789L86.5645 70.3929L51.8562 82.5896C51.8562 82.5896 50.6614 80.2967 47.4731 80.3921V80.3907Z" fill="white" stroke="black" stroke-miterlimit="10"/>
<path d="M50.5218 71.7024C50.5218 71.7024 47.6506 63.1431 34.1929 62.7776L31.4465 64.9633L44.4197 81.3376C44.4197 81.3376 45.8803 80.2191 47.4744 80.3908C47.4744 80.3908 48.6458 73.4756 50.5232 71.7024H50.5218Z" fill="white" stroke="black" stroke-miterlimit="10"/>
<path d="M107.137 113.628L87.8444 67.466L51.1428 80.7284C51.1428 80.7284 48.7516 76.655 43.705 79.9313L30.1138 62.7776L50.5659 109.084L65.9714 124.932L107.135 113.63L107.137 113.628Z" fill="#185B31"/>
<path d="M43.7063 79.9314L63.4891 122.374L65.9742 124.931L69.2549 124.03L51.1441 80.727C51.1441 80.727 49.0641 76.3659 43.7063 79.9299V79.9314Z" fill="black"/>
<path d="M131.238 109.779C131.238 109.779 121.732 114.142 110.504 105.201C110.504 105.201 114.856 101.518 131.238 109.779Z" fill="black"/>
<path d="M112.145 105.106C112.145 105.106 109.733 110.152 104.819 109.961L93.1991 107.758C92.2802 107.551 91.6006 106.362 91.5213 105.423C91.4347 104.383 91.2042 102.946 90.6141 101.499C90.6141 101.499 88.3066 96.1059 85.6233 96.605C85.6233 96.605 83.2718 97.5988 84.2127 100.473C84.2127 100.473 85.2989 102.165 85.6952 102.854C86.0915 103.542 86.7448 105.409 86.2501 105.757C85.7554 106.105 76.4108 100.811 76.4108 100.811C76.4108 100.811 73.6218 99.2722 72.4372 100.89C72.4372 100.89 71.5008 102.173 73.8552 104.132C73.8552 104.132 71.5007 104.935 72.7029 106.422C73.9051 107.911 74.8769 108.191 74.8769 108.191C74.8769 108.191 73.5044 109.371 73.8655 110.218C74.2266 111.064 75.4963 112.251 77.8464 113.201C77.8464 113.201 74.874 112.822 74.7242 113.751C74.5745 114.681 74.9121 115.26 76.6384 116.17C78.3646 117.081 90.2383 122.101 95.0677 122.797C95.0677 122.797 107.41 126.245 114.478 124.382C114.478 124.382 121.328 124.113 127.391 111.806L128.841 108.344C128.841 108.344 121.871 102.576 112.145 105.11V105.106Z" fill="white"/>
<path d="M73.723 104.196C73.723 104.196 70.818 105.125 73.723 107.516C76.6279 109.907 82.1178 111.324 82.1178 111.324" stroke="#231F20" stroke-miterlimit="10"/>
<path d="M74.7447 108.253C74.7447 108.253 71.4053 110.406 77.7128 113.261C77.7128 113.261 74.0592 112.595 74.6258 114.576C75.3319 117.043 103.455 128.056 115.718 124.071C127.981 120.085 131.521 98.2242 131.521 98.2242C131.521 98.2242 131.646 97.8014 131.743 97.0998C133.228 86.3343 117.177 83.6965 115.09 94.3607C113.328 103.362 110.385 111.29 103.333 109.778C91.646 107.272 91.6254 108.231 91.5021 105.521C91.3774 102.783 88.9348 96.8444 86.0578 96.6227C83.9381 96.4598 83.1367 99.7655 84.7293 101.757C86.3235 103.749 86.7652 105.257 86.1018 105.653C85.4383 106.049 75.0633 98.6807 72.9099 100.297C70.6082 102.023 72.9994 105.054 82.6053 107.855" stroke="#231F20" stroke-miterlimit="10"/>
<path d="M129.29 80.2572C129.29 80.2572 117.692 76.4494 114.726 85.0381C111.759 93.6267 110.503 105.201 110.503 105.201C110.503 105.201 120.523 103.356 131.237 109.779C131.237 109.779 135.31 81.5841 129.29 80.2572Z" fill="#E6E7E8"/>
<path d="M59.6301 7.96948L68.822 44.9515L42.6848 47.5541C42.6848 47.5541 41.9626 49.3053 39.5082 48.633L37.054 47.9622L9.4576 49.9629L0 9.31995L59.6301 7.96948Z" fill="#010101"/>
<path d="M33.267 12.4055C33.267 12.4055 37.5562 2.09648 58.6043 1.86749L65.0923 34.5207L64.4802 40.8238C64.4802 40.8238 56.4141 38.1684 42.6204 44.6814C42.6204 44.6814 39.783 45.4638 38.7819 45.3332C37.7808 45.2025 35.3381 43.7156 33.6251 43.3794C31.9121 43.0447 26.4237 41.6077 19.118 46.7585L12.3319 43.6891L2.85669 7.74199L7.90478 1.57538C7.90478 1.57538 19.6963 -2.10315 33.2655 12.4055H33.267Z" fill="white"/>
<path d="M58.6173 2.05248L65.0511 33.9468C50.4162 32.1075 40.2408 41.2407 40.2408 41.2407C28.7164 35.971 17.1582 40.7769 17.1582 40.7769L7.86353 1" stroke="black" stroke-miterlimit="10"/>
<path d="M33.2638 12.3747C33.2638 12.3747 38.3178 2.08629 58.6011 1.83675L65.0348 33.7311L64.4784 40.7931C64.4784 40.7931 57.2403 37.8074 42.1812 44.8518C42.1812 44.8518 38.8741 45.549 37.7775 45.1703C36.681 44.7916 30.3383 39.4001 19.1148 46.7263L12.3288 43.6569L2.85352 7.70978L7.90161 1.54317C7.90161 1.54317 19.2102 -2.48179 33.2623 12.3733L33.2638 12.3747Z" stroke="black" stroke-miterlimit="10"/>
<path d="M33.333 12.2689L40.2423 41.2392" stroke="black" stroke-miterlimit="10"/>
<path d="M17.3359 40.6741L12.3994 43.5511" stroke="black" stroke-miterlimit="10"/>
<path d="M56.646 22.7622C58.9196 18.0084 56.9232 12.3184 52.187 10.0533C47.4507 7.78812 41.7681 9.80555 39.4946 14.5594C37.221 19.3132 39.2174 25.0032 43.9537 27.2683C48.6899 29.5335 54.3725 27.516 56.646 22.7622Z" fill="#F1F1F1"/>
<path d="M44.527 18.9655L43.4437 15.0667C43.3101 14.5838 43.749 14.1361 44.2334 14.2623L48.1527 15.2737L52.072 16.2851C52.5579 16.4099 52.7252 17.0146 52.3743 17.3713L49.5399 20.2587L46.7054 23.146C46.3546 23.5042 45.7469 23.3471 45.6133 22.8642L44.5299 18.9655H44.527Z" fill="#185B31" stroke="#231F20" stroke-miterlimit="10"/>
<path d="M110.083 53.8675C114.306 53.8675 117.731 50.4436 117.731 46.2198C117.731 41.9961 114.306 38.5721 110.083 38.5721C105.859 38.5721 102.435 41.9961 102.435 46.2198C102.435 50.4436 105.859 53.8675 110.083 53.8675Z" fill="#185B31"/>
<path d="M104.986 26.7673C105.899 26.4164 107.326 25.9951 107.326 25.9951C107.326 25.9951 108.186 22.0553 112.346 26.5368C117.509 32.1001 111.239 39.5085 111.239 39.5085L115.884 41.2392C115.884 41.2392 122.42 30.3915 118.398 24.0707C114.376 17.75 107.755 17.0073 104.988 26.7673H104.986Z" fill="#185B31"/>
<path d="M33.7805 125H125.108" stroke="black" stroke-miterlimit="10"/>
</svg>
