<svg width="98" height="125" viewBox="0 0 98 125" fill="none" xmlns="http://www.w3.org/2000/svg">
<path d="M50.4897 20.9428L44.1618 29.4718C44.1618 29.4718 42.0396 39.8744 43.6376 49.1108C43.6376 49.1108 45.9076 60.4576 54.8835 58.5925V72.1152C54.8835 72.1152 56.2395 79.6915 67.9929 74.2643C67.9929 74.2643 69.9135 68.7379 70.4344 60.2039L69.8228 46.8206C69.8228 46.8206 77.3839 46.9113 77.1621 41.8571C76.9404 36.8029 73.8302 33.7414 73.2203 33.901C72.6103 34.0607 62.4851 19.8003 50.488 20.9445L50.4897 20.9428Z" fill="white"/>
<path d="M54.8818 62.3832C54.8818 62.3832 52.5916 73.9905 61.7978 73.6158C70.7889 73.2495 70.4713 60.4559 70.4713 60.4559C70.4713 60.4559 90.0951 66.152 91.2427 83.6704C92.1635 97.7342 92.7028 123.906 92.7028 123.906L34.8833 124L36.8425 81.6491C37.0206 77.8802 38.0809 74.2038 40.0384 71.0903C42.547 67.098 44.4222 63.2132 54.8818 62.3798V62.3832Z" fill="#E6E7E8"/>
<path d="M70.488 61.1397L69.8831 50.5187C69.2328 46.9919 69.5185 46.7499 69.8243 46.8188C70.8442 47.0523 72.7446 46.9851 74.7088 45.7905C79.7765 42.7038 76.2395 37.3976 72.6169 38.5183C70.6207 39.135 71.2794 41.1395 69.5823 42.4232C67.976 43.6381 69.5823 34.4336 69.5823 34.4336C70.362 25.7903 63.0411 22.492 58.7026 21.3023C56.5973 20.7243 54.3693 20.8436 52.3445 21.6619C48.9723 23.0263 44.118 26.128 43.3686 32.792C42.3906 41.4873 42.2445 53.5583 48.6647 57.386C55.821 61.6538 63.1302 54.4035 65.3683 52.656" stroke="black" stroke-miterlimit="10"/>
<path d="M54.8821 58.5925V62.9881" stroke="#231F20" stroke-miterlimit="10"/>
<path d="M69.5587 48.8503C69.5722 48.9175 69.5822 48.9863 69.589 49.0552C69.9452 52.8241 72.3093 51.5286 72.3093 51.5286C83.7317 46.0929 82.4279 26.5044 82.4279 26.5044C79.6806 7.00836 61.0768 15.9927 61.0768 15.9927C47.1625 5.52636 42.9736 17.3772 42.9736 17.3772C38.2034 18.8458 36.6424 23.5237 41.0884 28.0184C45.5344 32.5131 50.7784 25.2913 50.7784 25.2913C50.7784 25.2913 54.7254 30.8849 64.5213 28.5712C65.2959 28.388 66.1125 28.4283 66.8535 28.7241C67.9591 29.1643 69.2596 30.0716 68.9606 31.8712C68.4565 34.9041 67.7844 42.0267 69.1 42.5761C70.4157 43.1256 70.6038 40.8892 71.607 39.3988C72.6017 37.9185 74.9557 37.9235 76.5033 39.876C78.2743 42.1091 76.2075 45.0848 73.756 46.2862C73.756 46.2862 72.674 47.0843 69.6982 46.8155C69.4042 46.7886 69.4663 48.4033 69.5604 48.8469L69.5587 48.8503Z" fill="black"/>
<path d="M49.7201 62.9879C49.7201 62.9879 34.6616 65.4125 28.9571 74.0356C24.1113 81.3616 30.9231 91.3507 30.9231 91.3507L53.0941 92.1942L50.8493 70.9708L49.7218 62.9896L49.7201 62.9879Z" fill="#E6E7E8"/>
<path d="M74.9932 41.1042C74.9932 41.1042 72.55 41.0354 71.4495 44.3035" stroke="black" stroke-miterlimit="10"/>
<path d="M46.4605 36.8918C46.9876 36.8918 47.4149 36.4645 47.4149 35.9374C47.4149 35.4103 46.9876 34.983 46.4605 34.983C45.9334 34.983 45.5061 35.4103 45.5061 35.9374C45.5061 36.4645 45.9334 36.8918 46.4605 36.8918Z" fill="#231F20"/>
<path d="M58.5432 37.8462C59.0703 37.8462 59.4976 37.4189 59.4976 36.8918C59.4976 36.3647 59.0703 35.9374 58.5432 35.9374C58.0162 35.9374 57.5889 36.3647 57.5889 36.8918C57.5889 37.4189 58.0162 37.8462 58.5432 37.8462Z" fill="#231F20"/>
<path d="M56.4629 33.9042C56.4629 33.9042 58.4372 32.8456 60.6215 34.2722" stroke="#231F20" stroke-miterlimit="10"/>
<path d="M45.0842 32.4644C45.0842 32.4644 46.9577 30.3523 49.0295 33.197" stroke="#231F20" stroke-miterlimit="10"/>
<path d="M50.9568 35.9374L48.8027 44.3034H52.0574" stroke="black" stroke-miterlimit="10"/>
<path d="M52.1042 52.0611C52.1042 52.0611 56.8124 54.8537 58.543 49.8667" stroke="black" stroke-miterlimit="10"/>
<path d="M67.84 78.7085L56.6663 97.1393H63.3705L63.1974 123.593C63.1974 123.593 68.9842 124.138 72.2339 123.755L71.9852 102.965L66.6638 103.022C66.6638 103.022 67.4468 81.3095 67.8383 78.7068L67.84 78.7085Z" fill="black"/>
<path d="M1.00085 40.795C1.00085 40.795 0.666487 35.9727 13.2785 32.4895C25.8889 29.0063 35.6109 30.5857 34.5843 34.1395C33.5576 37.6932 35.5134 76.3964 35.5134 76.3964L49.7705 106.676C42.994 116.177 36.451 117.134 36.451 117.134L1.00085 40.795Z" fill="white" stroke="#231F20" stroke-miterlimit="10"/>
<path d="M14.9791 74.4236C16.377 80.2961 15.1572 116.486 15.1572 116.486C15.1572 116.486 25.148 124.425 36.7721 119.174L23.9046 37.3116C23.9046 37.3116 8.65793 43.7958 1.00098 40.7948C1.00098 40.7948 13.5828 68.5494 14.9791 74.4236Z" fill="white" stroke="#231F20" stroke-miterlimit="10"/>
<path d="M34.4919 34.6049C34.4919 34.6049 31.9514 36.8682 24.2793 39.6961" stroke="#231F20" stroke-miterlimit="10"/>
<path d="M14.5537 74.5497C14.5537 74.5497 25.0402 75.3529 35.2209 70.2297L36.5265 78.547C36.5265 78.547 26.6079 83.981 14.8444 82.536L14.5537 74.5497Z" fill="#185B31"/>
<path d="M7.83425 41.3831C7.83425 41.3831 5.0551 38.1973 10.8218 35.3173C18.6803 31.3939 26.1727 32.1098 26.1727 32.1098C26.1727 32.1098 24.0605 34.3562 25.5123 39.229" stroke="#231F20" stroke-miterlimit="10"/>
<path d="M20.4541 85.4539L14.0798 86.275C13.5653 86.3413 13.2019 86.8121 13.2682 87.3266L13.602 89.918C13.6683 90.4325 14.1391 90.7958 14.6536 90.7296L21.0279 89.9085C21.5424 89.8422 21.9058 89.3714 21.8395 88.8569L21.5057 86.2655C21.4394 85.751 20.9686 85.3877 20.4541 85.4539Z" fill="white" stroke="#231F20" stroke-miterlimit="10"/>
<path d="M20.1184 71.9381L11.4643 73.0529C10.9498 73.1191 10.5864 73.5899 10.6527 74.1044L10.9865 76.6958C11.0528 77.2103 11.5236 77.5737 12.0381 77.5074L20.6922 76.3926C21.2067 76.3264 21.57 75.8555 21.5038 75.341L21.17 72.7496C21.1037 72.2351 20.6329 71.8718 20.1184 71.9381Z" fill="white" stroke="#231F20" stroke-miterlimit="10"/>
<path d="M21.1973 80.9082L12.8898 81.9783C12.3753 82.0445 12.012 82.5153 12.0782 83.0298L12.4121 85.6212C12.4783 86.1357 12.9491 86.4991 13.4636 86.4328L21.7711 85.3627C22.2856 85.2964 22.6489 84.8256 22.5827 84.3111L22.2489 81.7197C22.1826 81.2052 21.7118 80.8419 21.1973 80.9082Z" fill="white" stroke="#231F20" stroke-miterlimit="10"/>
<path d="M22.026 76.2148L12.0371 77.5015C11.5226 77.5677 11.1592 78.0385 11.2255 78.553L11.5593 81.1444C11.6255 81.6589 12.0964 82.0223 12.6109 81.956L22.5998 80.6693C23.1143 80.603 23.4777 80.1322 23.4114 79.6177L23.0776 77.0263C23.0113 76.5118 22.5405 76.1485 22.026 76.2148Z" fill="white" stroke="#231F20" stroke-miterlimit="10"/>
<path d="M93.4337 102.966H71.9868V123.756H93.4337V102.966Z" fill="white"/>
<path d="M79.3446 66.6475C79.3446 66.6475 69.3353 65.8377 67.9189 78.0061C66.5041 90.1729 67.0082 103.024 67.0082 103.024H93.9814C93.9814 103.024 96.0767 69.8619 79.3446 66.6475Z" fill="#E6E7E8"/>
<path d="M71.9871 102.966V123.756" stroke="black" stroke-miterlimit="10"/>
<path d="M93.4339 123.756V102.967L66.6656 103.024C66.6656 103.024 66.6303 85.6683 67.8401 78.7086" stroke="black" stroke-miterlimit="10"/>
<path d="M94.4975 15.3593L72.3684 0L36.678 1.74746L46.6436 10.2395L42.9739 17.3789C43.641 17.7419 55.3222 25.0292 82.4265 26.5061L81.3645 17.762L94.4958 15.3593H94.4975Z" fill="#185B31"/>
<path d="M46.6453 10.2395L61.0199 20.9428L81.3662 17.762" stroke="black" stroke-miterlimit="10"/>
<path d="M82.4734 12.0239C82.4734 12.0239 93.7009 16.3993 92.266 28.877C90.831 41.3546 92.2055 49.4585 92.7012 50.3204" stroke="black" stroke-miterlimit="10"/>
<path d="M89.9724 52.8409C89.9724 52.8409 87.657 42.7022 91.6829 42.3511C91.6829 42.3511 94.4906 40.9951 96.354 50.3189L96.7119 52.0395L89.9707 52.8393L89.9724 52.8409Z" fill="#185B31"/>
<path d="M7.53882 123.924H97.7303" stroke="black" stroke-miterlimit="10"/>
</svg>
