<svg width="171" height="125" viewBox="0 0 171 125" fill="none" xmlns="http://www.w3.org/2000/svg">
<path d="M125.755 0H2.01627C0.902715 0 0 0.902715 0 2.01627V89.1662C0 90.2798 0.902715 91.1825 2.01627 91.1825H125.755C126.868 91.1825 127.771 90.2798 127.771 89.1662V2.01627C127.771 0.902715 126.868 0 125.755 0Z" fill="#185B31"/>
<path d="M111.426 12.5394H16.3437C15.2301 12.5394 14.3274 13.4421 14.3274 14.5557V76.9878C14.3274 78.1014 15.2301 79.0041 16.3437 79.0041H111.426C112.54 79.0041 113.442 78.1014 113.442 76.9878V14.5557C113.442 13.4421 112.54 12.5394 111.426 12.5394Z" fill="#F1F1F1" stroke="black" stroke-miterlimit="10"/>
<path d="M97.3286 95.798L95.7526 95.0201L91.426 101.319C91.426 101.319 81.7228 87.0659 79.2915 81.585C79.2915 81.585 82.3242 76.1495 80.8271 72.2816C80.8271 72.2816 80.1299 69.7511 74.8607 68.659C74.8607 68.659 73.0595 67.7601 71.7909 70.1729C71.7909 70.1729 68.496 67.6257 67.0627 70.1158C67.0627 70.1158 65.3204 72.2211 65.974 73.9147C65.974 73.9147 63.9426 73.5669 64.4736 76.0369C64.4736 76.0369 60.8409 77.2231 63.8418 80.9969C63.8418 80.9969 63.3763 80.6491 63.0974 80.7969C62.6975 81.012 62.4573 81.8353 62.6337 82.6233C62.8672 83.6701 64.5239 86.0964 65.9924 85.5486C66.7888 85.2529 65.9924 83.2602 65.9924 83.2602C65.9924 83.2602 66.5855 83.3862 67.0073 83.8684C67.5702 84.5153 68.0591 85.552 68.2104 85.7704C69.5915 87.7413 71.2465 86.3854 71.2465 86.3854C71.2465 86.3854 71.9505 110.534 80.8994 118.58C80.8994 118.58 88.521 127.563 98.0781 122.124C98.0781 122.124 102.978 119.445 104.671 115.7L97.3304 95.7963L97.3286 95.798Z" fill="white"/>
<path d="M72.2327 70.4132C72.2327 70.4132 69.215 68.0625 67.439 69.7444C65.663 71.4263 64.6733 73.2275 66.9299 74.8809C69.1864 76.5342 70.7154 77.6364 71.8328 77.0769C72.9485 76.5174 73.5802 74.6776 71.6446 73.3821C69.7106 72.0866 69.2553 71.4784 69.2553 71.4784" stroke="black" stroke-miterlimit="10"/>
<path d="M65.8242 73.6492C65.8242 73.6492 63.9559 73.5585 64.4734 76.0368C64.9892 78.5152 67.8725 81.0506 70.1004 81.0288C71.7437 81.012 72.4981 78.2026 71.2447 77.8263C69.9912 77.4482 69.7728 76.7879 69.7728 76.7879" stroke="black" stroke-miterlimit="10"/>
<path d="M64.4718 76.0369C64.4718 76.0369 61.8978 76.7039 62.8387 79.2881C63.7796 81.8723 66.5351 83.3038 67.8961 83.0955C68.8135 82.9544 68.4338 80.6424 68.4338 80.6424" stroke="black" stroke-miterlimit="10"/>
<path d="M65.9924 83.1139L66.5587 83.4651C66.9804 83.7255 67.3182 84.1036 67.5164 84.5589C67.9987 85.6712 69.2084 87.6942 71.2465 86.3887C71.2465 86.3887 70.934 111.609 83.7205 121.151C96.5071 130.693 106.977 113.208 106.977 113.208L97.117 93.0373L91.4277 101.321C91.4277 101.321 81.1599 86.76 79.2931 81.5866C79.2931 81.5866 81.5782 77.6834 81.2438 74.5784" stroke="black" stroke-miterlimit="10"/>
<path d="M63.5375 80.5919C63.5375 80.5919 62.3041 81.0288 62.6318 82.625C62.6318 82.625 63.7323 85.8829 65.5722 85.6292C66.1619 85.5486 66.5468 85.0193 66.1233 83.9608C66.1233 83.9608 65.7083 83.1307 65.841 83.0249C65.9738 82.919 66.4325 82.872 66.4325 82.872" stroke="black" stroke-miterlimit="10"/>
<path d="M72.1134 71.596L62.5747 35.4611L64.1273 34.7554L77.0902 80.5567L75.1159 81.6286L72.1134 71.596Z" fill="#43305E"/>
<path d="M79.6088 70.6971C79.6088 70.6971 75.4956 66.2495 72.5788 67.6155C70.7087 68.4909 72.6746 71.2986 73.9431 71.8497C75.2117 72.4008 74.6018 73.2006 74.8774 74.1768C75.1529 75.153 76.3089 78.4194 76.3089 78.4194C76.3089 78.4194 79.6273 75.0757 79.6088 73.3216C79.5903 71.5674 79.8625 71.191 79.6088 70.6971Z" fill="white"/>
<path d="M74.7448 73.0309C74.7448 73.0309 74.9162 73.5769 74.5734 74.2205C74.2306 74.864 72.7537 79.1637 76.5376 79.367C80.3215 79.5703 80.387 75.8637 79.7183 74.2759C79.0496 72.6881 75.5916 72.3521 74.7448 73.0309Z" fill="white"/>
<path d="M76.8889 79.4479C73.1974 79.3319 73.72 75.4019 74.3215 74.5785C74.4341 74.424 74.5164 74.2526 74.5752 74.0778C74.8642 73.2108 74.5198 72.2582 73.8024 71.6936C72.6161 70.7611 71.9222 70.7376 71.8113 69.3127C71.6701 67.4813 73.6158 67.3553 73.6158 67.3553C76.2369 67.1351 79.7201 70.7913 79.7201 70.7913C79.7201 70.7913 81.2172 72.2615 81.2743 75.0272" stroke="black" stroke-miterlimit="10"/>
<path d="M117.977 32.8686C117.977 32.8686 108.805 23.5266 112.467 20.7021C116.13 17.8793 126.092 10.115 132.452 15.7622C138.812 21.4078 135.74 20.2652 140.806 19.8553C145.872 19.447 153.104 26.5375 155.871 31.8067C158.638 37.0759 154.248 38.8065 153.119 41.5184C151.99 44.2286 142.871 58.4013 140.287 59.8564C137.705 61.3114 122.485 37.1633 120.612 35.8023C118.738 34.4413 117.977 32.8686 117.977 32.8686Z" fill="black"/>
<path d="M124.263 77.6096C121.563 70.9575 112.876 69.3597 107.978 74.6104C106.983 75.6756 105.911 76.9526 104.707 78.4883C98.342 86.6004 94.7026 92.4023 94.7026 92.4023L104.665 117.265L122.598 98.7653C126.99 94.2354 128.292 87.5397 125.92 81.6925L124.263 77.6112V77.6096Z" fill="black"/>
<path d="M155.411 71.1373C155.411 71.1373 116.127 66.7099 111.837 71.6464C107.55 76.5829 107.563 123.875 107.563 123.875C107.563 123.875 131.471 123.873 150.54 123.875C164.079 123.875 163.222 86.7684 162.469 79.9534C161.717 73.1384 155.409 71.1356 155.409 71.1356L155.411 71.1373Z" fill="#E5E6E8"/>
<path d="M126.998 62.6993L126.093 73.0646C126.093 73.0646 127.929 83.9105 141.529 74.5634L140.289 59.8564C140.289 59.8564 131.783 54.7334 127 62.6993H126.998Z" fill="white" stroke="black" stroke-miterlimit="10"/>
<path d="M118.76 30.6523C118.76 30.6523 106.347 62.2339 125.957 64.5475C134.222 65.5221 140.24 60.3117 143.34 56.7177C144.11 55.8272 144.708 54.8224 145.219 53.7773C145.637 52.9204 146.922 51.7022 150.861 51.8753C156.861 52.1374 154.828 45.734 151.34 44.4083C147.853 43.081 146.039 46.2331 146.039 46.2331C146.039 46.2331 142.629 46.2314 143.54 43.0406C144.449 39.8499 145.014 37.5261 138.462 39.2954C131.913 41.0647 130.989 33.9775 128.462 28.2883C127.186 25.4167 124.893 25.1933 122.934 25.6772C121.096 26.1309 119.755 27.6515 119.328 29.4963C119.226 29.9382 119.051 30.3583 118.76 30.654V30.6523Z" fill="white" stroke="black" stroke-miterlimit="10"/>
<path d="M121.484 41.5262C121.507 41.0099 121.086 40.572 120.545 40.5484C120.003 40.5248 119.546 40.9243 119.523 41.4406C119.501 41.957 119.922 42.3948 120.463 42.4184C121.004 42.4421 121.462 42.0426 121.484 41.5262Z" fill="black"/>
<path d="M135.223 44.551C135.245 44.0346 134.825 43.5969 134.283 43.5733C133.742 43.5496 133.285 43.949 133.262 44.4654C133.24 44.9818 133.66 45.4196 134.202 45.4432C134.743 45.4668 135.2 45.0674 135.223 44.551Z" fill="black"/>
<path d="M126.207 42.755L123.333 50.3379L127.771 51.9643" stroke="black" stroke-miterlimit="10"/>
<path d="M132.452 41.357C132.452 41.357 133.685 40.0347 136.154 41.5183" stroke="black" stroke-miterlimit="10"/>
<path d="M118.76 37.2657C118.76 37.2657 119.993 35.9434 122.461 37.427" stroke="black" stroke-miterlimit="10"/>
<path d="M126.704 57.1931C126.704 57.1931 128.967 58.418 132.56 56.5664" stroke="black" stroke-miterlimit="10"/>
<path d="M152.354 48.9669C152.354 48.9669 150.852 46.3138 148.937 47.826C147.021 49.3399 147.105 50.059 147.105 50.059" stroke="black" stroke-miterlimit="10"/>
<path d="M160.554 74.3465C160.554 74.3465 167.757 74.8876 167.109 93.3029C166.46 111.718 166.931 123.876 166.931 123.876H148.848V79.9215C148.848 79.9215 150.575 72.0833 160.554 74.3482V74.3465Z" fill="white" stroke="black" stroke-miterlimit="10"/>
<path d="M145.544 76.3562C148.525 70.3225 158.455 69.2942 163.377 73.8845C167.25 77.4953 170.138 84.3204 170.037 94.0187C169.849 112.296 169.649 108.606 169.649 108.606L142.555 108.611C142.555 108.611 139.277 89.0318 145.543 76.3545L145.544 76.3562Z" fill="#E5E6E8"/>
<path d="M169.651 108.606H147.396C147.396 108.606 144.447 86.3803 150.042 77.0752" stroke="black" stroke-miterlimit="10"/>
<path d="M117.431 48.7097C121.54 48.7097 124.871 45.3786 124.871 41.2696C124.871 37.1606 121.54 33.8296 117.431 33.8296C113.322 33.8296 109.991 37.1606 109.991 41.2696C109.991 45.3786 113.322 48.7097 117.431 48.7097Z" stroke="black" stroke-miterlimit="10"/>
<path d="M134.349 52.7473C138.41 52.7473 141.702 49.4554 141.702 45.3947C141.702 41.3339 138.41 38.042 134.349 38.042C130.288 38.042 126.997 41.3339 126.997 45.3947C126.997 49.4554 130.288 52.7473 134.349 52.7473Z" stroke="black" stroke-miterlimit="10"/>
<path d="M124.745 42.6206C124.745 42.6206 125.849 41.4243 127.327 43.202" stroke="black" stroke-miterlimit="10"/>
<path d="M67.2613 48.3637C67.2311 48.278 67.0882 48.2327 67.0446 48.3352C66.9169 48.6292 66.764 48.8728 66.5573 49.1181C66.4027 49.303 66.2196 49.4895 66.1961 49.7398C66.1927 49.7717 66.233 49.7919 66.2599 49.7768C66.4968 49.6306 66.6766 49.3769 66.853 49.1669C66.8816 49.1333 66.9085 49.098 66.9354 49.0627C66.7522 50.0003 66.5204 50.921 66.1087 51.7897C65.8382 52.3593 65.4769 52.8785 65.0299 53.3204C64.7107 53.6346 64.3461 53.7925 63.9764 53.9723C62.6978 52.9154 61.0142 52.3811 59.6331 53.0196C57.9915 53.0247 56.7179 54.5436 56.2121 56.1398C55.9534 56.0255 55.6543 55.9718 55.4023 55.8474C54.8562 55.5803 54.3689 55.1938 53.9136 54.7973C53.0248 54.0278 52.3443 53.0667 51.6621 52.1173C51.642 52.0518 51.6217 51.9863 51.5982 51.9241C52.2451 52.2971 52.9055 52.5895 53.6128 52.8751C53.6683 52.897 53.6918 52.8163 53.6498 52.7861C52.9659 52.2837 52.1712 52.0199 51.4436 51.6082C51.4285 51.583 51.4151 51.5562 51.4 51.5326C51.3731 51.4923 51.3177 51.4587 51.2673 51.4789C51.2521 51.4839 51.1866 51.5024 51.2252 51.4973C51.1345 51.5074 51.0941 51.6183 51.1782 51.6738C51.1933 51.6838 51.2084 51.6906 51.2235 51.7007C51.2235 51.7074 51.2202 51.7141 51.2235 51.7191C51.3008 51.914 51.3647 52.1022 51.4135 52.3055C51.5008 52.6634 51.5108 53.0448 51.6436 53.3876C51.6621 53.4346 51.741 53.4481 51.7528 53.3876C51.8049 53.1356 51.7999 52.8197 51.7495 52.5072C52.3561 53.48 53.0264 54.4058 53.8716 55.1972C54.3051 55.6038 55.3569 56.4943 56.1114 56.4977C56.066 56.6842 56.029 56.869 56.0054 57.0522C55.8189 58.561 56.1751 60.001 56.9783 61.0898C56.4994 62.0408 55.6576 62.6944 54.8326 63.3933C53.7892 64.2771 52.6567 65.0568 51.4201 65.6415C51.6688 65.3088 51.9561 64.9627 52.0502 64.5745C52.0569 64.5477 52.025 64.5292 52.0048 64.5477C51.6301 64.882 51.3495 65.3777 51.0622 65.786C51.0135 65.8549 51.0791 65.9389 51.1513 65.9422C51.6756 65.9658 52.188 66.1489 52.7139 66.1943C52.7475 66.1976 52.7492 66.1489 52.7206 66.1388C52.2636 65.9641 51.8637 65.7977 51.3933 65.749C52.8164 65.245 54.0463 64.383 55.1972 63.4135C55.7316 62.9615 56.822 62.2071 57.2169 61.3939C57.9646 62.2508 59.0231 62.8405 60.3421 62.9934C63.6925 63.3782 66.7538 59.67 65.7507 56.491C65.4853 55.6509 64.9392 54.8477 64.2419 54.2008C65.0383 53.9169 65.7222 53.0314 66.1087 52.4063C66.7438 51.3764 67.1622 50.0658 67.1286 48.8392C67.2344 49.2576 67.3839 49.6541 67.7351 49.9431C67.762 49.965 67.8174 49.9465 67.8023 49.9045C67.6141 49.392 67.4377 48.8728 67.2596 48.357L67.2613 48.3637ZM64.7141 55.8592C64.4133 56.4691 64.1092 57.069 63.7614 57.657C63.4186 58.2367 62.97 58.8349 62.8524 59.5087C62.8456 59.5456 62.8944 59.5876 62.9246 59.5507C63.3565 59.0281 63.6337 58.3661 63.9698 57.7797C64.289 57.2219 64.6133 56.6439 64.8048 56.0272C64.9627 56.3179 65.0989 56.6204 65.1963 56.9312C65.2114 56.9766 65.2198 57.0219 65.2316 57.069C65.1157 57.2202 65.025 57.3949 64.9359 57.5613C64.8183 57.778 64.6838 58.0452 64.7443 58.2972C64.7511 58.3275 64.793 58.3392 64.8149 58.3157C64.993 58.1242 65.1039 57.8553 65.2366 57.6302C65.2652 57.5814 65.292 57.5327 65.3206 57.484C65.581 59.2465 64.4385 60.8075 62.8977 61.6308C63.0439 61.409 63.1683 61.1721 63.2809 60.9789C63.6522 60.3421 63.9798 59.6699 64.2688 58.9928C64.2856 58.9542 64.2369 58.9239 64.2117 58.9592C63.8202 59.5019 63.506 60.0967 63.1582 60.668C62.9062 61.0847 62.5096 61.4762 62.2777 61.9114C62.0324 62.0055 61.7821 62.0811 61.5284 62.1365C61.7081 61.787 61.861 61.4191 62.0122 61.0645C62.0274 61.0276 61.9804 60.9973 61.9569 61.0326C61.7216 61.3955 61.4696 61.7736 61.2965 62.1785C61.1117 62.2105 60.9252 62.234 60.7387 62.2424C60.8009 62.0811 60.8512 61.9131 60.9151 61.7635C61.0512 61.4443 61.1974 61.1385 61.2864 60.8007C61.2948 60.7671 61.2495 60.7487 61.2327 60.7772C61.0344 61.0998 60.8411 61.4258 60.658 61.7585C60.5756 61.908 60.485 62.0744 60.4346 62.2441C60.1355 62.2374 59.8398 62.1987 59.5525 62.1231C59.5508 62.1231 59.549 62.1231 59.5474 62.1214C59.623 61.9534 59.6785 61.7719 59.7457 61.6039C59.9053 61.2006 60.0817 60.8058 60.2413 60.4025C60.2581 60.3622 60.1909 60.3337 60.1707 60.3723C59.996 60.7167 59.8044 61.0528 59.628 61.3972C59.5238 61.6005 59.3928 61.824 59.3256 62.0559C59.0467 61.9618 58.7896 61.8374 58.5561 61.6896C58.63 61.5316 58.6905 61.3636 58.7611 61.2158C58.8737 60.9805 59.003 60.7319 59.0047 60.4664C59.0047 60.4294 58.9526 60.4143 58.9341 60.4479C58.7879 60.7268 58.6552 61.0141 58.5057 61.2931C58.4586 61.3804 58.4082 61.4712 58.3678 61.5653C58.0503 61.3334 57.7781 61.0528 57.5513 60.7369C57.7176 60.4563 57.8755 60.1723 58.0352 59.885C58.1981 59.5927 58.3897 59.2801 58.4132 58.9391C58.4149 58.9139 58.3796 58.8987 58.3628 58.9172C58.1293 59.2062 57.9495 59.5507 57.7496 59.8632C57.6051 60.09 57.4891 60.3034 57.4135 60.537C57.2354 60.258 57.0875 59.959 56.9716 59.6414C57.0858 59.4146 57.1917 59.181 57.3076 58.9626C57.5344 58.5408 57.7748 58.1241 57.9361 57.6722C57.9478 57.6419 57.9024 57.6251 57.8856 57.6503C57.6319 58.0502 57.4067 58.4703 57.1749 58.8836C57.0825 59.05 56.98 59.2197 56.8859 59.3927C56.6423 58.6013 56.5801 57.7394 56.691 56.9312C56.8725 55.6189 57.4606 54.6646 58.3528 54.0983C58.3158 54.1638 58.3998 54.2344 58.462 54.1992C58.4888 54.184 58.5174 54.1706 58.546 54.1555C58.4384 54.3336 58.3343 54.5134 58.2301 54.6831C57.9529 55.1334 57.6689 55.6021 57.6202 56.1364C57.6168 56.1734 57.6655 56.1785 57.684 56.1533C58.0234 55.6862 58.2486 55.135 58.541 54.636C58.6787 54.4008 58.8417 54.1689 58.9862 53.9303C59.3609 53.7556 59.7373 53.6211 60.117 53.5371C60.0279 53.6497 59.9489 53.7707 59.8733 53.8833C59.6599 54.2076 59.497 54.5486 59.4063 54.9267C59.3995 54.9569 59.4399 54.9855 59.4617 54.9586C59.6566 54.7234 59.8112 54.4663 59.9607 54.1992C60.0951 53.9606 60.2783 53.7371 60.4245 53.5019C60.5236 53.4968 60.6228 53.4901 60.7253 53.4918C60.774 53.4918 60.8025 53.4699 60.821 53.443C61.0377 53.4363 61.2579 53.4531 61.478 53.4851C61.3217 53.7253 61.2243 54.0345 61.1168 54.2663C61.1016 54.2983 61.1419 54.3353 61.1688 54.3067C61.3603 54.0967 61.6359 53.8312 61.7586 53.5388C61.9921 53.5926 62.229 53.6665 62.4693 53.774C62.6491 53.8547 62.8222 53.9521 62.9902 54.0563C62.9331 54.1319 62.8843 54.2159 62.8474 54.2882C62.6491 54.6679 62.3466 55.125 62.4105 55.5669C62.4155 55.6021 62.4643 55.6089 62.4861 55.587C62.8171 55.2728 62.8876 54.7771 63.101 54.3857C63.1262 54.3386 63.1649 54.2697 63.1951 54.1975C63.4438 54.3722 63.6773 54.5722 63.8924 54.7889C63.6656 55.1754 63.4321 55.5534 63.2993 55.9835C63.2909 56.0121 63.3296 56.0339 63.3481 56.0121C63.5883 55.7399 63.9831 55.377 64.0672 54.9771C64.3108 55.2476 64.5259 55.545 64.7107 55.8575L64.7141 55.8592Z" fill="black"/>
<path d="M99.8625 59.2061C99.8625 59.2061 99.8558 59.2044 99.8524 59.2011C99.8692 59.0196 99.7886 58.8146 99.7365 58.65C99.6609 58.4147 99.5366 58.1862 99.3366 58.035C99.3131 58.0182 99.2795 58.0467 99.2879 58.0719C99.3652 58.2853 99.4593 58.4903 99.5282 58.7071C99.5652 58.8247 99.5769 58.9642 99.6021 59.0952C98.6461 58.0232 96.9339 57.5645 95.5746 57.4049C95.005 57.3377 93.7583 56.9882 93.1047 57.3209C93.0761 57.0504 93.024 56.7815 92.94 56.5161C92.1789 54.1033 89.0906 51.9895 86.8189 53.0397C85.7621 53.043 84.8581 53.6765 84.2112 54.5519C83.8735 54.3973 83.5039 54.2982 83.1712 54.1217C82.6234 53.8311 82.1412 53.4312 81.6892 53.0094C80.9247 52.2953 80.2879 51.4401 79.6831 50.5866C80.1518 50.847 80.6273 51.015 81.1801 51.1192C81.2187 51.1259 81.2473 51.0721 81.2086 51.052C80.6189 50.7781 80.0291 50.4689 79.4646 50.143C79.3789 50.0942 79.2596 50.1547 79.263 50.2589C79.2882 51.0721 79.5385 51.9895 79.8309 52.7456C79.8527 52.8011 79.9283 52.791 79.9334 52.7322C80.0039 52.0063 79.6629 51.2939 79.5587 50.5697C80.098 51.5258 80.7332 52.4062 81.4977 53.1993C82.0807 53.8042 83.067 54.7065 83.9978 54.861C83.5677 55.5415 83.282 56.3296 83.1896 57.0756C82.9897 58.6903 83.4098 60.2277 84.3372 61.3383C83.7072 61.9264 83.1543 62.6186 82.5528 63.2286C81.8152 63.9746 80.9516 64.6181 80.2241 65.3675C80.2274 65.2667 80.224 65.1659 80.2324 65.065C80.2492 64.7928 80.3098 64.5139 80.293 64.2434C80.293 64.2199 80.2576 64.2065 80.2459 64.2317C80.0224 64.6752 80.0375 65.2852 80.0291 65.7708C80.0291 65.8363 80.088 65.8682 80.1468 65.8598C80.6525 65.7842 81.1146 65.7943 81.5951 65.5842C81.6304 65.5691 81.6102 65.517 81.5766 65.517C81.1229 65.5187 80.7147 65.5305 80.2879 65.6346C81.1498 65.1423 81.8909 64.3207 82.5815 63.6234C83.2283 62.9715 83.9306 62.2557 84.4565 61.4761C85.2009 62.3028 86.2393 62.8707 87.5297 63.0185C88.3211 63.1093 89.0956 62.9698 89.8047 62.6657C90.4835 64.1947 91.779 65.218 93.4525 65.6061C93.1299 65.7943 92.8593 66.0228 92.6342 66.3353C92.614 66.3639 92.6527 66.4008 92.6813 66.3824C93.0375 66.1438 93.4004 65.8951 93.7768 65.6884C93.8356 65.6565 93.844 65.5876 93.8188 65.5322C93.6978 65.2616 93.5247 65.0012 93.3399 64.7693C93.3231 64.7475 93.2928 64.7676 93.2912 64.7895C93.2744 65.018 93.3937 65.2079 93.5012 65.4028C92.9114 65.0046 92.1133 64.8785 91.4984 64.5274C90.7171 64.0821 90.3626 63.3294 89.9475 62.6035C91.8294 61.7248 93.2072 59.6665 93.1231 57.6099C93.9801 57.3814 94.9244 57.5981 95.783 57.7409C96.4618 57.8535 97.1255 58.0232 97.7707 58.2635C98.3722 58.487 98.8309 59.0095 99.3988 59.2565C99.256 59.322 99.1568 59.4161 99.0392 59.5304C99.0191 59.5506 99.0342 59.5892 99.0628 59.5892C99.2325 59.5825 99.3787 59.5858 99.5383 59.5203C99.6593 59.4699 99.829 59.4313 99.8844 59.2985C99.8995 59.2616 99.8944 59.2279 99.8591 59.2061H99.8625ZM86.74 62.1448C84.4734 61.5534 83.593 59.065 83.8836 56.9529C84.0651 55.6407 84.6531 54.6863 85.5453 54.1201C85.5083 54.1856 85.5923 54.2562 85.6545 54.2209C86.2426 53.8865 86.8324 53.6445 87.4306 53.532C87.5885 53.5202 87.7481 53.5118 87.9128 53.5152C87.9615 53.5152 87.9901 53.4933 88.0085 53.4665C88.5462 53.448 89.094 53.5421 89.6569 53.7975C90.949 54.3822 91.9604 55.6138 92.3805 56.9512C93.3836 60.1504 89.593 62.8908 86.7366 62.1465L86.74 62.1448Z" fill="black"/>
<path d="M96.5323 24.333C96.5323 24.333 96.5323 24.3313 96.5323 24.3296C96.5323 24.2473 96.455 24.1952 96.3794 24.212C96.0383 24.291 95.6704 24.3716 95.3461 24.5044C95.3108 24.5178 95.2973 24.5817 95.3461 24.5901C95.5527 24.6237 95.7662 24.5934 95.9779 24.5481C95.1445 25.079 94.3531 25.7343 93.7179 26.4753C93.0778 27.2213 92.404 28.0749 92.1285 29.0376C90.8532 27.3708 88.5882 26.2686 86.8189 27.0869C85.3336 27.0919 84.1473 28.3353 83.5609 29.7551C83.1291 29.5501 82.6117 29.4644 82.1731 29.3048C81.5094 29.0628 80.8777 28.7419 80.2728 28.3773C79.1252 27.685 78.2447 26.7609 77.3508 25.7914C77.9641 25.9208 78.5237 26.2468 79.179 26.2249C79.226 26.2249 79.2344 26.1577 79.189 26.1443C78.4413 25.9208 77.7995 25.489 76.9963 25.4638C76.8636 25.4587 76.83 25.6117 76.8989 25.699C77.3189 26.2283 77.3391 26.9273 77.697 27.4717C77.7104 27.4918 77.7474 27.4935 77.7524 27.4649C77.8196 27.0735 77.6869 26.5895 77.4887 26.1661C78.1809 27.1524 79.1285 27.974 80.1266 28.6243C80.6794 28.9839 81.2758 29.2728 81.8841 29.5266C82.3529 29.7232 82.9191 29.9819 83.4551 30.0222C83.3241 30.3885 83.2333 30.7615 83.188 31.1245C83.1611 31.3446 83.1493 31.563 83.1443 31.7781C82.7444 31.7545 82.3294 31.7529 81.9496 31.8453C81.9076 31.8554 81.9026 31.9125 81.9379 31.9343C82.3042 32.1578 82.741 32.099 83.146 31.9915C83.1796 34.5572 84.7926 36.7515 87.528 37.0657C90.8784 37.4505 93.9397 33.7423 92.9367 30.5633C92.7938 30.1113 92.5704 29.6694 92.2847 29.2577C92.7636 28.1689 93.4038 27.1995 94.2422 26.3358C94.674 25.8889 95.1663 25.5024 95.672 25.1429C95.8484 25.0168 96.0316 24.9211 96.1913 24.8018C96.198 24.9648 96.2248 25.1277 96.2601 25.2857C96.2685 25.3243 96.3256 25.321 96.334 25.2857C96.4113 24.9933 96.5491 24.7178 96.5155 24.4136C96.5189 24.4052 96.524 24.3985 96.5273 24.3901C96.5357 24.37 96.534 24.3515 96.5273 24.3347L96.5323 24.333ZM92.3839 30.9934C93.3869 34.1926 89.5964 36.933 86.74 36.1887C84.4734 35.5972 83.5929 33.1088 83.8836 30.9968C84.0651 29.6845 84.6531 28.7301 85.5453 28.1639C85.5083 28.2294 85.5923 28.3 85.6545 28.2647C86.2426 27.9303 86.8324 27.6884 87.4305 27.5758C87.5885 27.5641 87.7481 27.5573 87.9128 27.559C87.9615 27.559 87.9901 27.5372 88.0085 27.5103C88.5462 27.4918 89.094 27.5859 89.6568 27.8413C90.9489 28.426 91.9604 29.6576 92.3805 30.9951L92.3839 30.9934Z" fill="black"/>
<path d="M61.98 58.7256C61.4692 57.8367 61.1718 56.8538 60.8039 55.9011C60.7468 55.7532 60.5098 55.6709 60.4258 55.8524C59.9907 56.7983 59.6916 57.7964 59.1623 58.6987C59.1119 58.7844 59.1976 58.9255 59.3035 58.8818C59.6681 58.7289 59.8697 58.2652 60.0276 57.9006C60.2175 57.9795 60.4511 57.9577 60.6544 57.9661C60.8392 57.9728 60.9955 57.9829 61.1517 57.9695C61.2912 58.2988 61.4423 58.6231 61.6272 58.9339C61.7616 59.1607 62.1128 58.9574 61.98 58.7272V58.7256ZM60.772 57.5998C60.5821 57.5931 60.3503 57.5662 60.1503 57.6099C60.3066 57.247 60.446 56.8756 60.5922 56.5077C60.7283 56.8773 60.861 57.2503 61.0055 57.6166C60.9333 57.6082 60.8577 57.6032 60.7703 57.5998H60.772Z" fill="black"/>
<path d="M59.1439 55.6945C59.1372 55.6726 59.1069 55.6609 59.0901 55.681C59.0162 55.7667 58.9389 55.8239 58.8935 55.9331C58.8464 56.044 58.8213 56.1616 58.7894 56.2758C58.7793 56.3094 58.8213 56.3313 58.8465 56.3094C58.9456 56.2187 59.0498 56.1431 59.1288 56.0322C59.2044 55.9247 59.1808 55.8071 59.1439 55.6962V55.6945Z" fill="black"/>
<path d="M88.4707 58.2147C88.7244 58.0232 88.8655 57.7292 88.7832 57.3209C88.642 56.6118 87.8389 56.3615 87.2374 56.6152C87.1366 56.6589 87.0929 56.7311 87.1097 56.842C87.234 57.6788 87.0508 58.5222 87.1247 59.3489C87.118 59.3489 87.1113 59.3489 87.1063 59.3489C87.0441 59.3472 87.0206 59.4363 87.0744 59.4648C87.0945 59.4766 87.1181 59.4867 87.1399 59.4968C87.1416 59.5136 87.1433 59.5321 87.1449 59.5489C87.1449 59.5489 87.1483 59.5472 87.15 59.5455C87.1752 59.6295 87.2894 59.6581 87.3415 59.5791C88.0338 59.811 89.0856 59.732 89.2805 58.9356C89.3897 58.4886 88.9394 58.2971 88.4723 58.2147H88.4707ZM87.686 58.1509C87.6272 58.1576 87.5851 58.1862 87.5583 58.2248C87.57 57.7813 87.5381 57.336 87.4861 56.9243C88.4035 56.7009 88.8622 58.0299 87.686 58.1509ZM88.9075 58.9742C88.7244 59.3808 87.938 59.3808 87.4071 59.3607C87.486 59.0616 87.5314 58.744 87.5499 58.4181C87.5751 58.4584 87.6188 58.4886 87.686 58.4886C87.9397 58.4886 89.1192 58.5038 88.9075 58.9742Z" fill="black"/>
<path d="M81.3968 58.0384C79.0461 57.8586 76.6417 57.9628 74.2877 58.0048C71.9001 58.0468 69.4974 58.0955 67.1149 58.2468C67.1468 58.2064 67.1737 58.1711 67.1888 58.1543C67.3568 57.9645 67.5887 57.783 67.666 57.5327C67.6795 57.489 67.6307 57.4638 67.5954 57.4789C67.4005 57.5646 66.5016 58.1997 66.6898 58.4786C66.6108 58.6836 66.8074 58.9726 66.9452 59.1541C67.0662 59.3154 67.3753 59.7707 67.6307 59.6212C67.9045 59.4616 67.4795 59.1658 67.372 59.0533C67.2611 58.9373 67.1585 58.7878 67.0459 58.6584C69.3663 58.4685 71.675 58.3173 74.0038 58.2535C76.4603 58.1863 78.9487 58.2787 81.3985 58.0905C81.4321 58.0871 81.4321 58.0401 81.3985 58.0384H81.3968Z" fill="black"/>
<path d="M67.9584 45.8348C67.8391 45.3055 67.2662 44.9611 66.7806 45.2602C66.4899 45.4383 66.221 46.2112 66.5655 46.4262C66.6629 46.6296 66.8679 46.7993 67.0931 46.8463C67.6829 46.9723 68.0777 46.3574 67.9601 45.8365L67.9584 45.8348ZM67.172 46.5791C66.878 46.5791 66.7469 46.3489 66.71 46.1036C66.6982 45.9171 66.7218 45.7323 66.8512 45.5727C67.1133 45.2501 67.5215 45.524 67.6442 45.8197C67.7904 46.1692 67.5702 46.5791 67.172 46.5775V46.5791Z" fill="black"/>
<path d="M50.0119 48.9079C49.5733 48.9802 49.2877 49.4977 49.2322 49.8993C49.2003 50.1328 49.2339 50.3563 49.3818 50.5445C49.4944 50.689 49.6355 50.7276 49.7834 50.7125C49.8876 50.7982 50.022 50.8436 50.1816 50.8217C50.5126 50.778 50.7461 50.4739 50.8419 50.1765C50.9998 49.6825 50.6302 48.8071 50.0119 48.9096V48.9079ZM50.2437 50.4655C50.1328 50.5411 50.0236 50.5562 49.9211 50.5294C49.7162 50.4201 49.565 50.2521 49.5767 50.0018C49.5885 49.7397 49.7464 49.4338 49.9732 49.2961C50.269 49.1163 50.5009 49.6103 50.5311 49.8455C50.5614 50.0875 50.442 50.3277 50.2437 50.4638V50.4655Z" fill="black"/>
<path d="M49.5668 65.5372C49.2862 65.2331 48.7367 65.3238 48.4343 65.5372C48.0512 65.8077 47.9555 66.4664 48.431 66.6949C48.4445 66.7016 48.4595 66.7016 48.4747 66.6983C48.6763 66.8562 48.9518 66.8948 49.1938 66.8125C49.6659 66.6512 49.9197 65.9203 49.5652 65.5372H49.5668ZM49.2258 66.4328C49.093 66.5756 48.8628 66.5874 48.6948 66.5101C48.5536 66.4445 48.4982 66.337 48.4427 66.2244C48.4276 66.09 48.4427 65.9606 48.5587 65.8464C48.72 65.6834 49.0291 65.6095 49.2409 65.7019C49.5349 65.8312 49.3921 66.2563 49.2274 66.4328H49.2258Z" fill="black"/>
<path d="M90.1625 45.2098C90.7539 42.7869 91.5807 39.8348 90.801 37.3732C90.791 37.3396 90.7455 37.3547 90.7506 37.3867C91.1807 39.9557 90.5153 42.3786 89.9458 44.867C89.4551 47.0177 88.6066 49.1012 87.6354 51.0721C87.6388 50.6789 87.6388 50.2807 87.5363 49.9144C87.5279 49.8825 87.4826 49.8825 87.4725 49.9144C87.3062 50.4874 87.3397 51.1511 87.3649 51.7408C87.3683 51.8249 87.4523 51.9072 87.5413 51.8752C88.1294 51.6652 88.6772 51.4468 89.23 51.1528C89.2653 51.1343 89.2401 51.0805 89.2031 51.0906C88.7545 51.2099 88.3176 51.3191 87.8825 51.4602C88.3328 50.9797 88.5008 50.0405 88.7209 49.4961C89.2888 48.0964 89.803 46.6817 90.1609 45.2115L90.1625 45.2098Z" fill="black"/>
<path d="M78.606 66.0127C78.5741 65.6766 78.4414 65.2011 78.0364 65.1591C77.7441 65.1289 77.5643 65.3523 77.4551 65.6565C77.3929 65.522 77.3055 65.4095 77.1829 65.3423C76.9291 65.2028 76.6705 65.4666 76.5327 65.6447C76.2588 65.9992 76.1697 66.5739 76.3344 66.9872C76.3512 67.0292 76.415 67.0376 76.4285 66.9872C76.5041 66.6915 76.5309 66.3907 76.6267 66.1C76.7023 65.8749 77.0031 65.4011 77.1527 65.8026C77.2753 66.1336 77.2803 66.51 77.3021 66.8629C77.3021 66.9032 77.3055 66.9402 77.3089 66.9721C77.3274 67.1804 77.6499 67.1838 77.6348 66.9721C77.6147 66.7402 77.6853 65.3288 78.0667 65.5019C78.3456 65.6279 78.3053 66.2143 78.3019 66.4596C78.2986 66.6696 78.2279 66.9754 78.3842 67.1502C78.4027 67.1703 78.4313 67.1653 78.4498 67.1502C78.722 66.9368 78.6346 66.305 78.606 66.0127Z" fill="black"/>
<path d="M79.0247 63.6302C78.8096 63.7764 78.6349 63.9696 78.5962 64.2334C78.5912 64.2653 78.6231 64.3023 78.6567 64.2787C78.7457 64.2166 78.8281 64.1443 78.9138 64.0771C78.8953 64.2955 78.8852 64.5173 78.9222 64.7273C78.9289 64.7643 78.9861 64.771 79.0012 64.7374C79.1474 64.4367 79.2952 64.1124 79.2733 63.7696C79.2666 63.6537 79.1356 63.5529 79.0264 63.6268L79.0247 63.6302Z" fill="black"/>
<path d="M96.593 65.0248C96.1729 64.9794 95.8856 65.2096 95.7109 65.5339C95.6386 65.3205 95.5177 65.1524 95.3144 65.1088C94.5683 64.9491 94.4154 66.4143 94.5515 66.8394C94.565 66.878 94.6272 66.8848 94.6373 66.8394C94.691 66.579 94.7263 66.3185 94.7867 66.0598C94.822 65.9086 95.1497 65.1004 95.3799 65.5053C95.4807 65.6834 95.5126 65.9186 95.5177 66.1522C95.4925 66.3236 95.4874 66.495 95.5026 66.6462C95.521 66.8327 95.7848 66.8377 95.7949 66.6462C95.7999 66.5403 95.8067 66.3958 95.805 66.2362C95.8587 65.8162 96.0503 65.3625 96.4821 65.344C97.1761 65.3171 96.8602 66.3673 97.0954 66.7083C97.1139 66.7352 97.1491 66.7403 97.1743 66.7184C97.6683 66.2917 97.2264 65.0953 96.593 65.0264V65.0248Z" fill="black"/>
<path d="M97.9118 64.5005C97.7773 64.4468 97.6345 64.4115 97.4883 64.3863C97.5236 64.2367 97.5573 64.0838 97.5287 63.9326C97.4917 63.7427 97.2246 63.7075 97.1758 63.9074C97.1708 63.9259 97.1809 63.9477 97.201 63.9528C97.2262 63.9578 97.2968 63.9679 97.29 63.9578C97.3052 63.9813 97.2901 64.0586 97.2884 64.0838C97.2783 64.1964 97.2481 64.3275 97.1994 64.4283C97.1591 64.5123 97.1927 64.603 97.2834 64.635C97.4934 64.7055 97.737 64.7089 97.9201 64.5677C97.9453 64.5476 97.942 64.514 97.9118 64.5022V64.5005Z" fill="black"/>
<path d="M88.773 32.8668C88.5983 32.8416 88.5025 32.8886 88.3429 32.9693C88.1379 33.0751 87.9161 33.0416 87.7162 32.9458C87.276 32.7307 87.1348 32.1746 87.2541 31.7343C87.3381 31.4252 87.6675 31.1832 87.9212 31.0186C88.222 30.822 88.4706 30.7514 88.6353 31.111C88.6504 31.1412 88.6924 31.1278 88.7025 31.1026C88.852 30.6876 88.4875 30.4843 88.1195 30.5918C87.6927 30.7161 87.192 31.1143 87.0088 31.5243C86.7568 32.0922 86.9215 32.8265 87.3886 33.2348C87.7633 33.5607 88.7798 33.6246 88.8588 32.9827C88.8655 32.9357 88.8184 32.8752 88.7714 32.8685L88.773 32.8668Z" fill="black"/>
<path d="M98.7216 21.8211C98.2158 21.7388 97.6345 22.2462 97.9084 22.6999C97.6967 23.0998 97.868 23.6458 98.2242 23.9096C98.7636 24.3079 99.3248 23.6946 99.4289 23.2006C99.5432 22.6612 99.3399 21.9219 98.7199 21.8211H98.7216ZM99.0459 23.167C98.977 23.4913 98.6763 23.7853 98.3385 23.5921C98.1016 23.4577 98.0041 23.1166 98.0075 22.8242C98.0108 22.8276 98.0126 22.8309 98.0159 22.8343C98.0445 22.8612 98.0932 22.8427 98.0932 22.8024C98.0932 22.4546 98.3923 22.0563 98.7754 22.2277C99.0963 22.3705 99.1064 22.8813 99.0459 23.167Z" fill="black"/>
<path d="M73.6478 22.9031C72.8463 23.1904 72.7288 24.3767 73.2782 24.9362C73.2866 24.9446 73.2966 24.9463 73.3084 24.9446C73.4395 25.1933 73.6361 25.4016 73.9083 25.5108C74.6795 25.8166 75.0811 24.9177 75.1416 24.2977C75.2188 23.5113 74.4694 22.6091 73.6478 22.9031ZM74.7702 24.4254C74.6879 24.8791 74.4023 25.4335 73.8797 25.1395C73.5907 24.9782 73.3958 24.659 73.2832 24.3313C73.258 23.9432 73.295 23.5466 73.6109 23.3131C74.2931 22.809 74.876 23.844 74.7719 24.4254H74.7702Z" fill="black"/>
<path d="M70.8804 30.2222C70.2537 29.9097 69.595 29.7215 68.9364 29.4897C68.9044 29.4779 68.8876 29.525 68.9145 29.5418C69.5144 29.9198 70.1814 30.0895 70.8602 30.2693C70.8871 30.276 70.9056 30.2374 70.8787 30.2239L70.8804 30.2222Z" fill="black"/>
<path d="M74.7651 30.9851C74.2779 30.7582 73.6814 30.6524 73.1454 30.6961C73.1168 30.6977 73.0966 30.7431 73.1286 30.7582C73.6192 30.9817 74.2123 31.022 74.745 31.0607C74.7836 31.064 74.8004 31.0035 74.7651 30.9867V30.9851Z" fill="black"/>
<path d="M79.0175 31.5227C78.6646 31.4589 78.2396 31.3665 77.8851 31.4673C77.8531 31.4757 77.8481 31.5194 77.8767 31.5362C78.206 31.7328 78.6646 31.6454 79.0175 31.5816C79.046 31.5765 79.046 31.5295 79.0175 31.5244V31.5227Z" fill="black"/>
<path d="M66.8427 27.9389C66.4412 27.6398 65.8414 27.8784 65.5137 28.1775C65.3356 28.3405 65.2163 28.5656 65.2146 28.8076C65.2146 29.0092 65.3188 29.2562 65.5019 29.3536C65.5422 29.441 65.5977 29.525 65.6784 29.5973C65.9287 29.8258 66.29 29.8359 66.5722 29.6662C67.0494 29.3788 67.3619 28.3253 66.8427 27.9372V27.9389ZM66.5773 29.2377C66.4328 29.4712 66.1589 29.5334 65.9102 29.4494C65.8245 29.4208 65.7573 29.3704 65.7036 29.3083C65.7036 29.3066 65.7036 29.3049 65.7036 29.3032C65.6851 29.1839 65.6095 29.0915 65.5607 28.989C65.5456 28.8932 65.5439 28.7924 65.5607 28.7C65.5641 28.6849 65.554 28.6731 65.5439 28.6698C65.5758 28.5858 65.628 28.5068 65.6918 28.4429C65.8968 28.2296 66.2631 28.0716 66.5571 28.1489C66.9957 28.2648 66.7201 29.0058 66.5773 29.2377Z" fill="black"/>
<path d="M77.6046 48.1233C77.3307 48.1048 77.0434 48.2073 76.7779 48.1199C76.5528 48.046 76.4301 47.7956 76.3696 47.5856C76.2217 47.0664 76.4385 46.4699 77.0232 46.4027C77.0451 46.3994 77.0517 46.3691 77.0282 46.3624C76.2704 46.149 75.9697 47.0194 76.0621 47.6175C76.173 48.3283 77.1677 48.9584 77.6516 48.2022C77.6751 48.1653 77.6432 48.125 77.6062 48.1216L77.6046 48.1233Z" fill="black"/>
<path d="M79.3052 47.2194C79.1018 46.8783 78.7036 46.5557 78.2937 46.549C78.0937 46.5457 77.9139 46.6582 77.8215 46.8347C77.7677 46.9371 77.7341 47.0632 77.7425 47.1791C77.7543 47.327 77.8114 47.4328 77.8752 47.5504C77.8786 47.7386 77.9257 47.9218 78.0634 48.0696C78.3071 48.3318 78.6801 48.3334 79.001 48.2259C79.4664 48.0696 79.5336 47.6059 79.3034 47.2211L79.3052 47.2194ZM78.9842 47.8478C78.8128 47.9621 78.5137 48.0209 78.3272 47.9335C78.1676 47.8596 78.0735 47.6714 78.0197 47.4765C78.0416 47.4143 78.0635 47.3522 78.0735 47.2866C78.0853 47.2094 78.1122 47.1186 78.1374 47.0413C78.1676 46.9439 78.2231 46.9237 78.2937 46.922C78.5154 46.917 78.7792 47.1354 78.9355 47.3253C79.0833 47.5034 79.1657 47.7285 78.9842 47.8495V47.8478Z" fill="black"/>
<path d="M80.629 47.3219C80.5399 47.2698 80.4559 47.2362 80.3668 47.2093C80.4677 47.0212 80.5214 46.8162 80.4878 46.5994C80.4508 46.3609 80.1803 46.1878 79.9552 46.2953C79.9283 46.3088 79.9232 46.3508 79.9451 46.3709C80.0694 46.4768 80.2106 46.5272 80.2206 46.712C80.2307 46.8884 80.1316 47.0716 80.0157 47.1976C79.9317 47.2866 79.9737 47.416 80.0829 47.4547C80.2845 47.5269 80.4458 47.4916 80.6272 47.3875C80.6524 47.374 80.6508 47.337 80.6272 47.3219H80.629Z" fill="black"/>
<path d="M45.4517 47.5033C43.7883 44.4167 42.1518 41.2747 40.8714 38.0117C40.7504 37.5496 40.6462 37.0825 40.579 36.5986C40.579 36.1601 40.5791 35.7232 40.5774 35.2863C40.6059 35.2393 40.6261 35.1838 40.6261 35.1166C40.6261 33.5658 40.6312 32.0133 40.6261 30.4624C40.9638 28.6209 40.2447 26.5072 41.0143 24.7547C41.3066 24.0893 41.8981 23.6121 41.9619 22.977C42.0779 22.6678 42.0224 22.3234 41.6763 21.9588C40.4161 20.6314 37.6706 20.8213 36.3298 21.9185C35.9602 22.2209 35.7787 22.5939 35.8291 22.9736C35.8056 23.1064 35.8055 23.2391 35.8526 23.3584C36.1769 24.2036 36.7649 24.3901 36.8708 25.447C36.9716 26.4534 36.9649 27.4716 36.9633 28.4814C36.9633 28.7251 36.9514 28.9754 36.938 29.2275C36.938 29.2275 36.938 29.2291 36.938 29.2308V29.2426C36.9145 29.6895 36.8943 30.1449 36.9313 30.5851C36.9161 32.8769 36.9212 35.1704 36.933 37.4622C36.6843 38.4569 36.3567 39.3508 35.819 40.2884C35.1301 41.4914 34.3925 42.6676 33.6565 43.8437C32.3947 45.8617 30.7044 47.8074 29.6744 49.9446C29.0611 51.2166 30.6187 52.3406 31.4689 52.9741C32.351 53.6327 33.4936 54.1049 34.6512 54.2729C36.2138 54.7266 37.9193 54.8559 39.5441 54.8307C40.4665 54.8778 41.3889 54.8677 42.3097 54.7803C43.5615 54.6627 44.825 54.3619 45.8953 53.6814C46.1272 53.5353 46.3338 53.3589 46.5186 53.1639C47.0361 52.9371 47.4714 52.5893 47.4999 51.9542C47.5739 50.3765 46.1658 48.8256 45.4534 47.5066L45.4517 47.5033ZM36.5919 23.0812C36.1684 22.7183 37.0422 22.2159 37.2304 22.1151C38.1596 21.6127 40.7941 21.3573 41.3032 22.6124C41.5905 23.3231 39.6567 23.6978 39.2702 23.7634C38.9409 23.8188 38.5427 23.8558 38.1361 23.8491C37.926 23.7365 37.7143 23.6273 37.469 23.5466C37.1531 23.4424 36.8456 23.2996 36.5919 23.0829V23.0812ZM37.5446 38.8904C37.6488 38.677 37.6488 38.388 37.6051 38.0789C37.6202 35.5837 37.6252 33.0869 37.6067 30.5918C37.6336 30.244 37.6253 29.8895 37.6354 29.508C37.6639 28.3184 37.679 27.1305 37.6386 25.9409C37.6185 25.3697 37.5849 24.8522 37.4018 24.333C38.2284 24.5766 39.2567 24.4623 40.0061 24.2926C40.2094 24.2473 40.4564 24.1632 40.705 24.0507C40.4732 24.4086 40.2817 24.7799 40.233 25.2168C40.0969 26.4383 39.8801 27.9555 39.9439 29.3383C39.9423 29.6055 39.9439 29.871 39.9406 30.1381C39.8549 31.3244 39.7625 32.5123 39.6499 33.6952C39.4365 35.9215 39.5373 37.8117 40.411 39.8818C40.6076 40.3489 40.8227 40.8126 41.0462 41.273C40.4279 41.2679 39.9389 41.641 39.4567 42.1047C38.2856 43.2305 37.2707 41.8795 36.0257 41.9232C35.9602 41.9249 35.8962 41.9434 35.8324 41.9552C35.8996 41.8426 35.9702 41.7334 36.0358 41.6208C36.56 40.7236 37.0808 39.8229 37.5429 38.8921L37.5446 38.8904ZM40.5841 53.6831C39.2618 53.7705 37.931 53.7655 36.6188 53.6126C36.3146 53.5504 35.9904 53.4933 35.6896 53.4765C35.3233 53.4126 34.9587 53.3404 34.5975 53.248C33.2634 52.9119 31.1513 52.06 30.5531 50.61C30.5246 50.3429 30.5918 50.0538 30.8052 49.7346C31.4353 48.7886 32.099 47.8612 32.7257 46.9118C33.4868 45.7642 34.2194 44.5998 34.9403 43.427C35.5199 42.9448 36.1029 42.4979 36.9414 42.8709C37.4017 43.0759 37.9612 43.4069 38.4787 43.3649C38.8669 43.3346 39.2348 43.2741 39.5289 42.9885C39.7423 42.7835 39.9389 42.5651 40.1456 42.3534C40.6597 41.8275 41.157 41.9703 41.5586 42.2878C42.1433 43.4254 42.7617 44.5494 43.3414 45.6718C43.8371 46.6329 44.289 47.6242 44.83 48.5601C45.3744 49.501 45.8533 50.2672 45.8667 51.2451C45.8029 53.1119 41.8762 53.5941 40.5841 53.6798V53.6831Z" fill="black"/>
<path d="M37.4944 46.4498C37.4608 46.391 37.4238 46.3271 37.3784 46.2751C37.3667 46.2331 37.36 46.1877 37.3432 46.1457C37.2239 45.8365 36.9029 45.7542 36.6475 45.9625C36.3821 46.1793 36.3753 46.6161 36.6122 46.8564C36.8559 47.1051 37.1735 47.0984 37.4373 46.8883C37.5633 46.7875 37.5666 46.5792 37.4944 46.4498Z" fill="black"/>
<path d="M39.2316 45.9726C39.1391 45.8953 39.0652 45.8315 38.9375 45.8483C38.835 45.8617 38.7728 45.9054 38.7341 46.0029C38.6871 46.1239 38.7275 46.2112 38.7812 46.3204C38.835 46.433 38.9896 46.4868 39.1038 46.4515C39.1828 46.428 39.2349 46.3944 39.2752 46.3204C39.3323 46.2129 39.329 46.0583 39.2298 45.9726H39.2316Z" fill="black"/>
<path d="M40.203 44.7394C39.9863 44.6117 39.7174 44.8687 39.8535 45.0888C39.8619 45.1006 39.8687 45.1124 39.8771 45.1241C39.9107 45.1779 39.9745 45.2233 40.04 45.2182L40.0736 45.2149C40.3156 45.193 40.4349 44.8755 40.203 44.7394Z" fill="black"/>
<path d="M41.5553 49.3599C41.3672 49.0541 40.9874 49.1415 40.8345 49.3666C40.8328 49.3632 40.8312 49.3616 40.8295 49.3599C40.7102 49.5514 40.6884 49.7531 40.764 49.9648C40.9169 50.3865 41.4664 50.3865 41.6193 49.9648C41.6965 49.7514 41.673 49.5497 41.5553 49.3599Z" fill="black"/>
<path d="M40.1927 51.0066C39.6887 51.0066 39.6887 51.7879 40.1927 51.7879C40.6968 51.7879 40.6968 51.0066 40.1927 51.0066Z" fill="black"/>
<path d="M39.9137 49.7951C39.912 49.7834 39.9087 49.7716 39.907 49.7599C39.8347 49.3785 39.1963 49.5969 39.3963 49.9749C39.4013 49.985 39.408 49.9968 39.413 50.0069C39.5676 50.2959 39.9692 50.0858 39.9137 49.7968V49.7951Z" fill="black"/>
<path d="M34.3539 49.649C33.991 49.5499 33.749 49.8775 33.7977 50.2052C33.8095 50.2892 33.8415 50.3564 33.8801 50.432C33.9876 50.6437 34.29 50.6622 34.4496 50.5059C34.4832 50.4706 34.5186 50.4387 34.5556 50.4068C34.8076 50.1715 34.6749 49.738 34.3556 49.6507L34.3539 49.649Z" fill="black"/>
<path d="M36.0695 51.1124C35.967 50.8301 35.6494 50.7965 35.4814 50.9645C35.4814 50.9611 35.4814 50.9578 35.4798 50.9561C35.4058 51.0351 35.3571 51.1241 35.3336 51.23C35.3302 51.2451 35.3335 51.2569 35.3318 51.272C35.3318 51.272 35.3318 51.272 35.3318 51.2737C35.2865 51.3274 35.3 51.3913 35.347 51.4249C35.431 51.6988 35.8192 51.808 36.0057 51.5139C36.0813 51.3963 36.1199 51.2485 36.0712 51.1124H36.0695Z" fill="black"/>
<path d="M35.8276 49.1684C35.8158 49.1416 35.8041 49.1164 35.7923 49.0912C35.6512 48.7887 35.1236 48.8559 35.0665 49.1852C35.0614 49.2138 35.0563 49.2424 35.0513 49.2693C35.0042 49.5381 35.1655 49.8086 35.4613 49.8086C35.8057 49.8086 35.9603 49.4524 35.8276 49.1684Z" fill="black"/>
<path d="M35.4025 18.5093C35.3286 18.5311 35.2596 18.605 35.268 18.6873C35.2899 18.9427 35.4394 19.22 35.5805 19.43C35.6494 19.5325 35.9805 19.798 36.1149 19.6417C36.4526 19.2452 35.9216 18.353 35.4041 18.5093H35.4025Z" fill="black"/>
<path d="M38.284 18.049C38.1631 17.9498 37.9849 17.9818 37.9345 18.1414C37.8438 18.4321 37.8774 18.8252 38.1664 18.9949C38.1899 19.0084 38.2185 19.0084 38.242 18.9949C38.5714 18.8 38.5663 18.2809 38.284 18.049Z" fill="black"/>
<path d="M40.6953 17.3936C40.6634 17.2827 40.5087 17.2273 40.4247 17.323C40.0618 17.733 39.6266 18.5328 39.9206 19.0621C39.9811 19.173 40.129 19.1797 40.2164 19.1007C40.455 18.8857 40.5273 18.6151 40.6113 18.3093C40.6986 18.0002 40.786 17.7095 40.6936 17.3953L40.6953 17.3936Z" fill="black"/>
<path d="M43.0742 18.2254C42.8809 18.2842 42.7533 18.5547 42.6323 18.7043C42.4559 18.9244 42.3634 19.1646 42.3886 19.4452C42.392 19.4839 42.4289 19.5259 42.4726 19.5091C42.8221 19.3696 43.0708 19.252 43.2657 18.9059C43.3565 18.7446 43.4539 18.1078 43.0742 18.2237V18.2254Z" fill="black"/>
<path d="M38.7914 39.3509C38.7797 39.3458 38.7696 39.3391 38.7578 39.3341C38.6083 39.2585 38.4302 39.2937 38.3395 39.4433C38.3344 39.4534 38.3277 39.4635 38.3226 39.4735C38.1664 39.7323 38.4217 40.0549 38.7091 39.9759C38.9829 39.9003 39.062 39.487 38.7914 39.3509Z" fill="black"/>
<path d="M38.2387 37.9277C38.2387 37.9479 38.2386 37.9681 38.2369 37.9882C38.2319 38.1596 38.3983 38.2554 38.5495 38.2268C38.5949 38.2184 38.6301 38.2151 38.657 38.1747C38.657 38.173 38.657 38.1697 38.657 38.168C39.1476 37.8219 38.2555 37.3648 38.2387 37.9277Z" fill="black"/>
<path d="M38.8484 34.3303C38.7728 34.2866 38.6753 34.2984 38.6148 34.3606C38.519 34.4547 38.593 34.5236 38.588 34.6261C38.5846 34.6781 38.6417 34.7218 38.6921 34.7067C38.7795 34.6781 38.8635 34.6865 38.9173 34.5958C38.9711 34.5051 38.9391 34.3841 38.8484 34.332V34.3303Z" fill="black"/>
<path d="M29.6426 26.8736C29.4275 26.5896 29.2326 26.0704 28.9285 25.8234C28.9285 25.8184 28.9268 25.8133 28.9251 25.8083C28.8612 25.5563 28.4865 25.4991 28.3622 25.7344C27.9001 26.6081 27.4213 27.47 27.1693 28.4295C27.1424 28.5319 27.2751 28.6176 27.3524 28.5353C27.8447 28.0044 28.211 27.3961 28.5387 26.761C28.7168 27.754 28.6513 28.8461 28.6849 29.8207C28.7302 31.1665 28.789 32.5107 28.8797 33.8532C29.0864 36.9095 29.162 39.9827 29.4712 43.0306C29.4779 43.0894 29.5586 43.0911 29.5636 43.0306C29.7703 39.981 29.5216 36.9011 29.3754 33.8532C29.2746 31.7378 29.4527 29.4225 29.1839 27.265C29.4947 27.6868 29.8324 28.0396 30.2575 28.3706C30.3164 28.416 30.397 28.3757 30.3818 28.2984C30.2726 27.7271 29.987 27.3306 29.6426 26.8719V26.8736Z" fill="black"/>
<path d="M21.7171 36.061C21.2164 36.0895 20.3746 36.5718 20.1444 35.8425C19.8739 34.9806 20.6267 33.3004 21.6566 33.5003C21.6919 33.507 21.7289 33.4717 21.707 33.4365C21.4852 33.1004 21.0215 33.2113 20.7359 33.3844C20.2671 33.6683 19.9646 34.1909 19.7597 34.6832C19.2875 35.814 19.711 37.0153 21.0854 36.9129C21.4651 36.8843 21.9624 36.7935 22.1489 36.4239C22.2951 36.1366 21.9305 36.0492 21.7171 36.061Z" fill="black"/>
<path d="M25.7227 34.3976C25.4202 33.1744 23.9332 32.7056 23.1049 33.7171C22.537 34.4111 22.4866 35.7586 23.1183 36.34C23.1587 36.4525 23.2209 36.5584 23.3166 36.6558C23.604 36.9432 24.0559 36.9398 24.4222 36.8423C25.4892 36.5601 25.9697 35.4041 25.721 34.396L25.7227 34.3976ZM24.0055 36.2929C23.7317 36.0459 23.4275 35.7637 23.3234 35.4226C23.1923 34.9958 23.357 34.4363 23.6309 34.0969C24.266 33.3189 25.0792 34.1473 25.1481 34.8799C25.2153 35.6007 24.5735 36.2408 24.0055 36.2929Z" fill="black"/>
<path d="M27.3624 37.7311C27.2397 37.6689 27.0667 37.5546 26.9255 37.5546C26.8213 37.5546 26.7071 37.563 26.5945 37.558C26.8768 37.222 27.1809 36.8725 27.1927 36.4255C27.1994 36.1483 26.9407 35.9114 26.6685 35.9114C26.529 35.9114 26.0115 36.1349 26.2031 36.3499C26.3022 36.4625 26.5273 36.3886 26.6584 36.4255C26.6954 36.4356 26.5928 36.6305 26.5592 36.691C26.3811 37.0086 26.1358 37.2757 25.9358 37.5798C25.8653 37.6874 25.9056 37.8689 26.0266 37.9243C26.2517 38.0285 26.4701 38.089 26.7205 38.0923C26.9843 38.0957 27.1389 37.9949 27.3624 37.8705C27.4145 37.842 27.4162 37.758 27.3624 37.7311Z" fill="black"/>
<path d="M68.5129 123.875H166.93" stroke="black" stroke-miterlimit="10"/>
</svg>
