<svg width="25" height="24" viewBox="0 0 25 24" fill="none" xmlns="http://www.w3.org/2000/svg">
<path d="M13.1516 2C18.1222 2 22.1516 6.02944 22.1516 11M14.1516 6C16.3607 6 18.1516 7.79086 18.1516 10M7.49656 16.7534C9.50055 18.7574 11.6582 20.0352 13.427 20.8349C13.5154 20.8748 13.5596 20.8948 14.063 21.0243C15.3889 21.3653 17.8871 20.9096 19.0072 20.1225C19.4326 19.8236 19.6156 19.6406 19.9816 19.2746C20.3572 18.899 20.545 18.7112 20.6649 18.5204C21.0736 17.8699 21.0736 17.0428 20.6649 16.3923C20.545 16.2015 20.3572 16.0137 19.9816 15.638L19.7137 15.3701C19.3452 15.0016 19.1609 14.8174 18.9519 14.71C18.6434 14.5516 18.2896 14.5049 17.9506 14.5779C17.7208 14.6274 17.4951 14.7576 17.0436 15.0179L15.9427 15.6528C15.7106 15.7866 15.5945 15.8536 15.4264 15.8941C15.3048 15.9235 15.0952 15.9331 14.9714 15.915C14.8003 15.89 14.7082 15.8476 14.5241 15.7628C13.7773 15.419 12.5377 14.7069 11.1658 13.335C9.76361 11.9329 9.05069 10.6689 8.71575 9.928C8.63833 9.75675 8.59962 9.67112 8.57452 9.51017C8.55643 9.39425 8.56143 9.19573 8.58532 9.08087C8.61849 8.92139 8.6757 8.81011 8.79013 8.58755L9.41824 7.3659C9.68424 6.84854 9.81724 6.58987 9.8503 6.3268C9.88547 6.0469 9.841 5.76275 9.72199 5.50698C9.61014 5.2666 9.40447 5.06092 8.99312 4.64958L8.61193 4.26839C8.23633 3.89278 8.04852 3.70498 7.85772 3.58509C7.20722 3.17636 6.38009 3.17636 5.72959 3.58509C5.53879 3.70498 5.35098 3.89278 4.97538 4.26839C4.60936 4.6344 4.42636 4.81741 4.12746 5.24275C3.34034 6.36287 2.8847 8.86107 3.2257 10.1869C3.35518 10.6904 3.37516 10.7346 3.41511 10.823C4.21476 12.5918 5.49257 14.7494 7.49656 16.7534Z" stroke="#6A6A6E" stroke-linecap="round"/>
</svg>
