<svg width="20" height="21" viewBox="0 0 20 21" fill="none" xmlns="http://www.w3.org/2000/svg">
<path d="M12.471 7.66145L16.7268 3.40567M16.7268 3.40567L16.7504 3.38204M16.7268 3.40567C16.7398 3.41871 16.7473 3.43732 16.7461 3.45841L16.5364 7.16218M16.7268 3.40567C16.7137 3.39263 16.6951 3.38517 16.674 3.38636L12.9702 3.59601M6.03881 14.4612C7.7088 16.1312 9.50685 17.1961 10.9808 17.8625C11.0545 17.8957 11.0913 17.9124 11.5109 18.0203C12.6158 18.3045 14.6976 17.9248 15.631 17.2688C15.9855 17.0197 16.138 16.8672 16.443 16.5622C16.756 16.2492 16.9125 16.0927 17.0124 15.9337C17.353 15.3916 17.353 14.7024 17.0124 14.1603C16.9125 14.0013 16.756 13.8448 16.443 13.5318L16.2197 13.3085C15.9127 13.0014 15.7591 12.8479 15.5849 12.7584C15.3278 12.6264 15.033 12.5875 14.7505 12.6483C14.559 12.6896 14.3709 12.7981 13.9947 13.015L13.0772 13.5441C12.8838 13.6556 12.7871 13.7114 12.647 13.7452C12.5457 13.7696 12.371 13.7776 12.2679 13.7625C12.1252 13.7417 12.0485 13.7064 11.8951 13.6357C11.2728 13.3492 10.2397 12.7558 9.09649 11.6126C7.92802 10.4441 7.33392 9.39078 7.05481 8.7734C6.99029 8.63069 6.95803 8.55933 6.93711 8.4252C6.92204 8.32861 6.9262 8.16317 6.94611 8.06746C6.97375 7.93455 7.02143 7.84182 7.11678 7.65636L7.64021 6.63831C7.86188 6.20718 7.97271 5.99162 8.00026 5.7724C8.02957 5.53915 7.99251 5.30236 7.89334 5.08921C7.80013 4.88889 7.62873 4.7175 7.28594 4.37471L6.96829 4.05705C6.65528 3.74405 6.49878 3.58755 6.33978 3.48764C5.79769 3.14702 5.10842 3.14702 4.56634 3.48764C4.40733 3.58755 4.25083 3.74405 3.93783 4.05705C3.63281 4.36206 3.48031 4.51457 3.23123 4.86902C2.5753 5.80246 2.19559 7.88428 2.47976 8.98918C2.58766 9.40874 2.60431 9.44557 2.63761 9.51921C3.30398 10.9932 4.36882 12.7913 6.03881 14.4612Z" stroke="white" stroke-linecap="round"/>
</svg>
