<svg width="23" height="23" viewBox="0 0 23 23" fill="none" xmlns="http://www.w3.org/2000/svg">
<path d="M11.3711 0C12.1285 0 12.7422 0.613675 12.7422 1.37109V10.001H21.3721C22.1293 10.0011 22.743 10.6149 22.7432 11.3721C22.7432 12.1294 22.1293 12.743 21.3721 12.7432H12.7422V21.3721C12.7419 22.1292 12.1283 22.7432 11.3711 22.7432C10.614 22.743 10.0003 22.1291 10 21.3721V12.7432H1.37109C0.613834 12.743 -3.31028e-08 12.1294 0 11.3721C0.000119614 10.6149 0.613908 10.0012 1.37109 10.001H10V1.37109C10 0.613796 10.6138 0.000197285 11.3711 0Z" fill="white"/>
</svg>
