<svg width="25" height="24" viewBox="0 0 25 24" fill="none" xmlns="http://www.w3.org/2000/svg">
<path d="M6.75 16.1163L10.4419 14.8662C10.8203 14.7381 11.0095 14.674 11.2035 14.6357C11.3759 14.6017 11.5508 14.5829 11.7265 14.5795C11.9242 14.5757 12.1227 14.5981 12.5196 14.6429L17.1326 15.1636C17.9226 15.2527 18.5229 15.9154 18.5339 16.7103C18.5453 17.5358 17.9187 18.2306 17.0964 18.3043L14.5675 18.5309M6.75 20.9901H8.06175C8.45039 20.9901 8.64471 20.9901 8.83564 21.0148C9.00522 21.0366 9.17263 21.0729 9.33603 21.1233C9.51999 21.18 9.69685 21.2605 10.0506 21.4215L11.1168 21.907C11.5929 22.1237 11.831 22.2321 12.0798 22.2973C12.3006 22.3551 12.5274 22.3875 12.7556 22.394C13.0127 22.4012 13.2716 22.3639 13.7894 22.2894L17.4886 21.757C17.8717 21.7019 18.0632 21.6744 18.2479 21.6231C18.4119 21.5776 18.5718 21.5182 18.7258 21.4456C18.8992 21.3638 19.0623 21.2597 19.3884 21.0514L22.0132 19.3752C22.4722 19.0821 22.75 18.5751 22.75 18.0305C22.75 16.8141 21.4434 16.0451 20.38 16.6356L17.7854 18.0764M4.75 22.4003C4.28501 22.4003 4.05252 22.4003 3.86177 22.3492C3.34413 22.2105 2.93981 21.8062 2.80111 21.2885C2.75 21.0978 2.75 20.8653 2.75 20.4003V16.4334C2.75 15.9684 2.75 15.7359 2.80111 15.5452C2.93981 15.0275 3.34413 14.6232 3.86177 14.4845C4.05252 14.4334 4.28501 14.4334 4.75 14.4334C5.21499 14.4334 5.44748 14.4334 5.63823 14.4845C6.15587 14.6232 6.56019 15.0275 6.69889 15.5452C6.75 15.7359 6.75 15.9684 6.75 16.4334V20.4003C6.75 20.8653 6.75 21.0978 6.69889 21.2885C6.56019 21.8062 6.15587 22.2105 5.63823 22.3492C5.44748 22.4003 5.21499 22.4003 4.75 22.4003ZM11.0925 11.6584H18.4902C19.6103 11.6584 20.1703 11.6584 20.5981 11.4404C20.9745 11.2486 21.2804 10.9427 21.4722 10.5664C21.6902 10.1385 21.6902 9.57848 21.6902 8.45838V5.2C21.6902 4.0799 21.6902 3.51984 21.4722 3.09202C21.2804 2.71569 20.9745 2.40973 20.5981 2.21799C20.1703 2 19.6103 2 18.4902 2H11.0925C9.97238 2 9.41233 2 8.98451 2.21799C8.60818 2.40973 8.30222 2.71569 8.11048 3.09202C7.89249 3.51984 7.89249 4.07989 7.89249 5.2V8.45837C7.89249 9.57848 7.89249 10.1385 8.11048 10.5664C8.30222 10.9427 8.60818 11.2486 8.98451 11.4404C9.41233 11.6584 9.97238 11.6584 11.0925 11.6584ZM16.5417 6.82917C16.5417 7.79584 15.7581 8.57948 14.7914 8.57948C13.8247 8.57948 13.0411 7.79584 13.0411 6.82917C13.0411 5.8625 13.8247 5.07886 14.7914 5.07886C15.7581 5.07886 16.5417 5.8625 16.5417 6.82917Z" stroke="#6A6A6E" stroke-linecap="round" stroke-linejoin="round"/>
</svg>
