<svg width="39" height="30" viewBox="0 0 39 30" fill="none" xmlns="http://www.w3.org/2000/svg">
<path d="M9.57485 30C7.78443 30 6.30539 29.6552 5.13773 28.9655C3.97006 28.2759 2.99701 27.3563 2.21857 26.2069C1.44013 24.9808 0.856281 23.6015 0.46706 22.069C0.155683 20.5364 0 19.1571 0 17.931C0 14.1762 0.973051 10.728 2.91916 7.58621C4.94311 4.44444 8.01796 1.91571 12.1437 0L13.1946 2.06897C10.8593 3.06514 8.83533 4.5977 7.12275 6.66667C5.41018 8.73563 4.47605 10.8429 4.32037 12.9885C4.16468 14.1379 4.24252 15.2107 4.5539 16.2069C5.95509 14.9042 7.66767 14.2529 9.69162 14.2529C11.9491 14.2529 13.8563 14.9808 15.4132 16.4368C16.9701 17.8161 17.7485 19.7318 17.7485 22.1839C17.7485 24.4828 16.9311 26.3602 15.2964 27.8161C13.7395 29.272 11.8323 30 9.57485 30ZM30.8264 30C29.0359 30 27.5569 29.6552 26.3892 28.9655C25.2216 28.2759 24.2485 27.3563 23.4701 26.2069C22.6916 24.9808 22.1078 23.6015 21.7186 22.069C21.4072 20.5364 21.2515 19.1571 21.2515 17.931C21.2515 14.1762 22.2245 10.728 24.1706 7.58621C26.1946 4.44444 29.2694 1.91571 33.3952 0L34.4461 2.06897C32.1108 3.06514 30.0868 4.5977 28.3742 6.66667C26.6617 8.73563 25.7275 10.8429 25.5719 12.9885C25.4162 14.1379 25.494 15.2107 25.8054 16.2069C27.2066 14.9042 28.9192 14.2529 30.9431 14.2529C33.2006 14.2529 35.1078 14.9808 36.6647 16.4368C38.2216 17.8161 39 19.7318 39 22.1839C39 24.4828 38.1826 26.3602 36.5479 27.8161C34.991 29.272 33.0838 30 30.8264 30Z" fill="#FFCCCC"/>
</svg>
