<svg width="21" height="20" viewBox="0 0 21 20" fill="none" xmlns="http://www.w3.org/2000/svg">
<path d="M0.5 20L1.90583 14.8642C1.03833 13.3608 0.5825 11.6567 0.583333 9.90917C0.585833 4.44583 5.03166 0 10.4941 0C13.145 0.000833333 15.6333 1.03333 17.505 2.90667C19.3758 4.78 20.4058 7.27 20.405 9.91833C20.4025 15.3825 15.9566 19.8283 10.4941 19.8283C8.83581 19.8275 7.20165 19.4117 5.75415 18.6217L0.5 20ZM5.99749 16.8275C7.39415 17.6567 8.72748 18.1533 10.4908 18.1542C15.0308 18.1542 18.7291 14.4592 18.7316 9.91667C18.7333 5.365 15.0525 1.675 10.4975 1.67333C5.95415 1.67333 2.25833 5.36833 2.25666 9.91C2.25583 11.7642 2.79916 13.1525 3.71166 14.605L2.87916 17.645L5.99749 16.8275ZM15.4866 12.2742C15.425 12.1708 15.26 12.1092 15.0116 11.985C14.7641 11.8608 13.5466 11.2617 13.3191 11.1792C13.0925 11.0967 12.9275 11.055 12.7616 11.3033C12.5966 11.5508 12.1216 12.1092 11.9775 12.2742C11.8333 12.4392 11.6883 12.46 11.4408 12.3358C11.1933 12.2117 10.395 11.9508 9.44915 11.1067C8.71331 10.45 8.21582 9.63917 8.07165 9.39083C7.92748 9.14333 8.05665 9.00917 8.17998 8.88583C8.29165 8.775 8.42748 8.59667 8.55165 8.45167C8.67748 8.30833 8.71832 8.205 8.80165 8.03917C8.88415 7.87417 8.84332 7.72917 8.78082 7.605C8.71832 7.48167 8.22332 6.2625 8.01748 5.76667C7.81582 5.28417 7.61165 5.34917 7.45998 5.34167L6.98499 5.33333C6.81999 5.33333 6.55165 5.395 6.32499 5.64333C6.09832 5.89167 5.45832 6.49 5.45832 7.70917C5.45832 8.92833 6.34582 10.1058 6.46915 10.2708C6.59332 10.4358 8.21498 12.9375 10.6991 14.01C11.29 14.265 11.7516 14.4175 12.1108 14.5317C12.7041 14.72 13.2441 14.6933 13.6708 14.63C14.1466 14.5592 15.1358 14.0308 15.3425 13.4525C15.5491 12.8733 15.5491 12.3775 15.4866 12.2742Z" fill="black"/>
</svg>
