<svg width="21" height="20" viewBox="0 0 21 20" fill="none" xmlns="http://www.w3.org/2000/svg">
<g clip-path="url(#clip0_175_262)">
<path d="M20.1016 5.15459C19.9885 4.7291 19.7657 4.34077 19.4554 4.02847C19.1451 3.71617 18.7582 3.49084 18.3334 3.37504C16.7698 2.95459 10.5198 2.95459 10.5198 2.95459C10.5198 2.95459 4.26978 2.95459 2.70614 3.37504C2.28138 3.49084 1.89449 3.71617 1.58418 4.02847C1.27387 4.34077 1.05103 4.7291 0.937957 5.15459C0.519775 6.72504 0.519775 10 0.519775 10C0.519775 10 0.519775 13.275 0.937957 14.8455C1.05103 15.271 1.27387 15.6593 1.58418 15.9716C1.89449 16.2839 2.28138 16.5092 2.70614 16.625C4.26978 17.0455 10.5198 17.0455 10.5198 17.0455C10.5198 17.0455 16.7698 17.0455 18.3334 16.625C18.7582 16.5092 19.1451 16.2839 19.4554 15.9716C19.7657 15.6593 19.9885 15.271 20.1016 14.8455C20.5198 13.275 20.5198 10 20.5198 10C20.5198 10 20.5198 6.72504 20.1016 5.15459Z" fill="black"/>
<path d="M8.47437 12.9741V7.02637L13.7016 10.0002L8.47437 12.9741Z" fill="#FEFEFE"/>
</g>
<defs>
<clipPath id="clip0_175_262">
<rect width="20" height="20" fill="white" transform="translate(0.5)"/>
</clipPath>
</defs>
</svg>
